<svg xmlns="http://www.w3.org/2000/svg" width="865.76" height="682.89" viewBox="0 0 865.76 682.89"><ellipse cx="420.44" cy="609.39" rx="279.32" ry="54.06" transform="translate(-12.82 9.04) rotate(-1.21)" fill="#849cf7"/><ellipse cx="420.44" cy="609.39" rx="279.32" ry="54.06" transform="translate(-12.82 9.04) rotate(-1.21)" fill="#fff" opacity="0.7"/><path d="M730.05,429.11s88.06-83.1,39.68-193.44A189.69,189.69,0,0,0,707.51,159C647,114.77,493.74,27.29,263.25,61.07a172,172,0,0,0-69.42,26.07C160,109.33,124.14,150.1,139.39,220c5.39,24.69,4.17,50.44-4.71,74.09-8.81,23.45-25.49,52.17-56.53,83.21,0,0-66.17,63.91-1.8,119.23a117.44,117.44,0,0,0,47.54,24.46C204.14,541.5,528.65,609.7,730.05,429.11Z" fill="#849cf7"/><path d="M730.05,429.11s88.06-83.1,39.68-193.44A189.69,189.69,0,0,0,707.51,159C647,114.77,493.74,27.29,263.25,61.07a172,172,0,0,0-69.42,26.07C160,109.33,124.14,150.1,139.39,220c5.39,24.69,4.17,50.44-4.71,74.09-8.81,23.45-25.49,52.17-56.53,83.21,0,0-66.17,63.91-1.8,119.23a117.44,117.44,0,0,0,47.54,24.46C204.14,541.5,528.65,609.7,730.05,429.11Z" fill="#fff" opacity="0.7"/><path d="M692.53,351.72a1.32,1.32,0,0,1-1.16-1.94,21.09,21.09,0,0,1,7.21-7c4.64-2.91,12.88-6,25.77-4.35.55.06,16.12,1.44,25.08-6.65,4.22-3.81,6.36-9.19,6.36-16v-.09c0-.06.35-6.57-4.37-10.84-3.94-3.58-10.29-4.69-18.85-3.3a1.33,1.33,0,0,1-1.51-1.09,1.31,1.31,0,0,1,1.09-1.51c9.41-1.52,16.5-.19,21.07,4,5.48,5,5.24,12.17,5.2,12.9,0,7.56-2.44,13.59-7.24,17.92-10,9-26.42,7.37-27.12,7.3h0c-23.06-3-30.27,9.86-30.34,10A1.31,1.31,0,0,1,692.53,351.72Z" fill="#ffc345"/><g opacity="0.2"><path d="M692.53,351.72a1.32,1.32,0,0,1-1.16-1.94,21.09,21.09,0,0,1,7.21-7c4.64-2.91,12.88-6,25.77-4.35.55.06,16.12,1.44,25.08-6.65,4.22-3.81,6.36-9.19,6.36-16v-.09c0-.06.35-6.57-4.37-10.84-3.94-3.58-10.29-4.69-18.85-3.3a1.33,1.33,0,0,1-1.51-1.09,1.31,1.31,0,0,1,1.09-1.51c9.41-1.52,16.5-.19,21.07,4,5.48,5,5.24,12.17,5.2,12.9,0,7.56-2.44,13.59-7.24,17.92-10,9-26.42,7.37-27.12,7.3h0c-23.06-3-30.27,9.86-30.34,10A1.31,1.31,0,0,1,692.53,351.72Z"/></g><rect x="417.17" y="83.93" width="1.32" height="15.65" transform="translate(-6.52 145.88) rotate(-19.65)" fill="#849cf7"/><rect x="444.42" y="75.37" width="1.32" height="15.15" transform="translate(-4.64 135.13) rotate(-17.18)" fill="#849cf7"/><path d="M382.82,93.34,359.13,43.06s-5.53-6.58,8.69-9.48L379.66,57l9.74,33.7Z" fill="#849cf7"/><path d="M468.85,35.93,385.34,64.3l-3.17-8.4-9.8-26a3.13,3.13,0,0,1,1.26-3.74C381,21.44,407.22,6.88,447.91,6.6c1.73,0,3.49,0,5.28,0a4.66,4.66,0,0,1,4.06,2.63C459.61,14.12,464.85,25.23,468.85,35.93Z" fill="#849cf7"/><path d="M468.85,35.93,385.34,64.3l-3.17-8.4c2-12.25,67.78-28.11,67.78-28.11,12.65-1.47,2.5-15.62-2-21.19,1.73,0,3.49,0,5.28,0a4.66,4.66,0,0,1,4.06,2.63C459.61,14.12,464.85,25.23,468.85,35.93Z" fill="#fff" opacity="0.3"/><path d="M535.19,278.39l-10,1.58,50.71,41,1.15,35.32,46.33,24.22L610.21,415.8,636.54,434,617.06,477.4l28.45,50.75s.77-5.21,2.08-7.58l-25.27-44.22,20.8-43.18L621,413.69l12.11-36.85-47.91-25,1-32.9Z" fill="#ffc345"/><path d="M535.19,278.39l-10,1.58,50.71,41,1.15,35.32,46.33,24.22L610.21,415.8,636.54,434,617.06,477.4l28.45,50.75s.77-5.21,2.08-7.58l-25.27-44.22,20.8-43.18L621,413.69l12.11-36.85-47.91-25,1-32.9Z" opacity="0.2"/><path d="M535.19,278.39l51.07,40.54-1,32.9,47.91,25L621,413.69l22.11,19.48-20.8,43.18,25.27,44.22c-17.28,45.22,87.21,9.38,64.5-126.09C712.09,394.48,689.45,250,535.19,278.39Z" fill="#ffc345"/><polygon points="356.45 249.96 391.19 248.9 632.06 515.57 714.72 488.19 697.09 640.87 499.13 560.32 581.78 530.31 356.45 249.96" fill="#0020f5"/><polygon points="498.6 581.38 499.13 560.32 697.09 640.87 693.66 659.04 498.6 581.38" fill="#0020f5"/><polygon points="498.6 581.38 499.13 560.32 697.09 640.87 693.66 659.04 498.6 581.38" opacity="0.2"/><path d="M614.69,362.1l10,12.11s7.37,1.84,17.38-12.37l-8.69-14.22Z" fill="#ff8d85"/><path d="M680.5,361.57,632.06,392.9a27.18,27.18,0,0,1-9.36-20.28s8.89-.66,18.21-12.83l29-7.45a4.65,4.65,0,0,1,4.87,1.69Z" fill="#849cf7"/><polygon points="633.91 395.79 632.06 392.9 680.5 361.57 681.82 364.47 633.91 395.79" fill="#272b35"/><path d="M326.62,149l-17.24-21.46s-3.69-4.74-1.58-7.37c0,0,1-1.77,8.53,7.38a.6.6,0,0,0,.89.05l.14-.15a.6.6,0,0,0,0-.86c-2-1.93-10.06-10-8-12.74,0,0,1.53-2.55,11.16,10a.6.6,0,0,0,.9.06l.13-.12a.61.61,0,0,0,0-.87c-2.19-2-11.34-10.78-9-13.79,0,0,3.07-2.3,13.48,12a.6.6,0,0,0,1,0h0a.59.59,0,0,0,0-.76c-1.63-1.8-8.57-9.81-6.24-13.07,0,0,2.33-2.33,7.89,6.65a19.41,19.41,0,0,1,1.6,3.23c.84,2.21,2.46,6.22,3.4,7,0,0-1.06-5.74,2.16-8a.79.79,0,0,1,1.24.66c0,2.68,0,8.78.82,10.81,0,0,2.5,10.14,1.18,15.4A18.62,18.62,0,0,0,326.62,149Z" fill="#ff8d85"/><path d="M333.59,124.14c-4.12,3.52-8,9.41-4.64,14.68l.35.55.4.51a5,5,0,0,0,.41.5c.41.48.92,1,1.38,1.4-7-5.53-4-12.91,2.1-17.64Z" fill="#f97673"/><path d="M494.65,261.54c5.53,15.79.53,19.74.53,19.74-6.07,8-25.69,11.38-38.41,12.78-6.61.73-11.35.91-11.35.91-7.33-1.88-7.95-10.88-7.7-15.87a11.33,11.33,0,0,0-1.72-6.59l-16.38-26C413,236,407.78,232.32,407.78,232.32L383.3,218.89c-15.83-6.26-24.74-14.59-29.19-19.94a31.91,31.91,0,0,1-3.72-5.33L324.59,151c4.74-9.48,16.59-8.95,16.59-8.95L368,180.2c13.62,14.31,39.81,25.39,46,27.89l1.35.53h0l11.06-7.11,25.44-4.38A81.62,81.62,0,0,1,467.8,196C485.17,173.62,486,158.87,486,158.87c.53-17.9-11.32-49.49-11.32-49.49,13.95-10.79,16.59-7.1,16.59-7.1L505.88,146l.88,2.61c6.84,18.95-23.69,71.6-23.69,71.6C487.28,233.9,494.65,261.54,494.65,261.54Z" fill="#849cf7"/><path d="M446,287.86a34.78,34.78,0,0,0,10.82,6.2c-6.61.73-11.35.91-11.35.91-7.33-1.88-7.95-10.88-7.7-15.87a11.25,11.25,0,0,0-1.72-6.59l-16.38-26C413,236,407.78,232.32,407.78,232.32L383.3,218.89c-15.83-6.26-24.74-14.59-29.19-19.94,3.8,2.88,17.48,12.91,30.24,17.84,0,0,25.53,14.48,32.64,11.58,0,0,2.71-9-3-20.4h0l1.41.65h0l1.75-1.11s5.36,8.48,1.41,24c0,0-1.05,3.16,9.22,19.48,0,0,10.53,19.22,16,20.53,0,0,12.38-.79,14.48,4.21C458.32,275.75,438.05,274.44,446,287.86Z" fill="#fff" opacity="0.3"/><path d="M444.63,206.26a313,313,0,0,1,21,40.24c5.85,13.86,11.07,28.44,12.72,43.47l-1-5.58c-2.75-12.92-7.41-25.38-12.61-37.5-5.93-13.89-12.78-27.4-20.06-40.63Z" fill="#fff" opacity="0.3"/><path d="M483.07,220.21s-2.9-7.11-7.37-16.06c0,0,6.05,5.79,8.42,10.27,0,0,22.83-41.82,21.55-68.56l.21.14.88,2.61C513.6,167.56,483.07,220.21,483.07,220.21Z" fill="#fff" opacity="0.3"/><polygon points="548.09 429.75 549.14 445.81 562.83 451.87 569.67 444.49 568.1 427.12 548.09 429.75" fill="#ff8d85"/><path d="M587.65,483.73a10.48,10.48,0,0,1-9.67,5.66c-16.67-.72-32.79-33.58-32.79-33.58l1.06-7.89c.26-8.69,5.79-4.74,5.79-4.74a12.63,12.63,0,0,0,8.37,4.3,4.47,4.47,0,0,0,3.82-1.58c6.64-7.85,10.18,2.54,10.18,2.54l12.11,19.75C590.67,474.85,589.48,480.26,587.65,483.73Z" fill="#849cf7"/><path d="M587.65,483.73c-1.76,9.74-12.18,7.62-12.18,7.62-16.06-1.05-28.17-25.8-28.17-25.8-4.48-5.79-2.11-9.74-2.11-9.74s16.12,32.86,32.79,33.58A10.48,10.48,0,0,0,587.65,483.73Z" fill="#272b35"/><path d="M636.8,347.36s-.57,11.46-17,15.83a50.89,50.89,0,0,1-10.09,1.54S591.52,341,583.36,334.19c0,0-17.11-12.1-20.79-18.95,0,0-10-.79-43.18,7.63l-6.2-4.8L500.7,308.4l2.11-21.59,7.37-2.11s61.34-10.26,68.18-4.21Z" fill="#ebb4f4"/><path d="M636.8,347.36s-.57,11.46-17,15.83a50.89,50.89,0,0,1-10.09,1.54S591.52,341,583.36,334.19c0,0-17.11-12.1-20.79-18.95,0,0-10-.79-43.18,7.63l-6.2-4.8L500.7,308.4l2.11-21.59,7.37-2.11s61.34-10.26,68.18-4.21Z" opacity="0.2"/><path d="M619.78,363.19a50.89,50.89,0,0,1-10.09,1.54S591.52,341,583.36,334.19c0,0-17.11-12.1-20.79-18.95,0,0-10-.79-43.18,7.63l-6.2-4.8,51-6.25s11.05,11.32,21.06,18.69C585.21,330.51,605.81,355.76,619.78,363.19Z" opacity="0.2"/><polygon points="672.08 482.14 658.39 468.19 671.81 443.97 711.83 447.65 672.08 482.14" fill="#ffc345"/><polygon points="672.08 482.14 658.39 468.19 671.81 443.97 711.83 447.65 672.08 482.14" opacity="0.2"/><polygon points="711.83 447.65 714.46 445.28 671.55 441.6 656.81 467.4 658.39 468.19 671.81 443.97 711.83 447.65" fill="#ffc345"/><polygon points="711.83 447.65 714.46 445.28 671.55 441.6 656.81 467.4 658.39 468.19 671.81 443.97 711.83 447.65" opacity="0.3"/><polygon points="466.48 638.77 480.43 601.65 532.03 614.29 523.61 636.66 466.48 638.77" fill="#ffc345"/><polygon points="466.48 638.77 480.43 601.65 532.03 614.29 523.61 636.66 466.48 638.77" opacity="0.2"/><polygon points="466.48 638.77 466.22 632.45 479.91 597.7 532.82 611.92 532.03 614.29 480.43 601.65 466.48 638.77" fill="#ffc345"/><polygon points="466.48 638.77 466.22 632.45 479.91 597.7 532.82 611.92 532.03 614.29 480.43 601.65 466.48 638.77" opacity="0.3"/><polygon points="191.13 158.35 187.71 166.51 224.56 228.63 250.36 208.89 300.9 300.24 353.55 278.91 558.09 539 581.78 530.31 356.45 249.96 302.22 277.07 251.41 187.57 224.56 210.73 191.13 158.35" fill="#0020f5"/><polygon points="191.13 158.35 187.71 166.51 224.56 228.63 250.36 208.89 300.9 300.24 353.55 278.91 558.09 539 581.78 530.31 356.45 249.96 302.22 277.07 251.41 187.57 224.56 210.73 191.13 158.35" opacity="0.2"/><polygon points="191.13 158.35 222.98 162.82 244.55 193.3 224.56 210.73 191.13 158.35" fill="#0020f5"/><polygon points="289.06 193.36 251.41 187.57 302.22 277.07 334.8 260.99 289.06 193.36" fill="#0020f5"/><path d="M475.9,108.57A41.8,41.8,0,0,1,465.69,97.8s-8.68-7.11-5-8.69c0,0,1.84-1.58,8.16,4,0,0-8.16-17.37-3.42-22.64,0,0,1.84-3.42,2.63,5.53,0,0,.79,9,2.9,9.74,0,0,1.31.53,1.05-2.89,0,0-2.63-9.22,0-13.43,0,0,1.84-2.11,2.11,4.21,0,0,.52,11.06,2.37,10,0,0,.79,1.31.52-3.69,0,0-.79-11.06.27-11.32,0,0,3.94-2.89,4.47,15,0,0,1.32,2.63,1.84-.79,0,0-1.58-10.53.27-9.74,0,0,3.42-2.37,5.52,16.84l1.85,12.38S488,99.06,475.9,108.57Z" fill="#ff8d85"/><path d="M468.85,93.06c6.71-1.65,12,1.66,13.4,8.44l.22,1.26.14,1.27a19.33,19.33,0,0,0-1.29-4.91c-2.09-5.22-7.17-7.11-12.47-6.06Z" fill="#f97673"/><path d="M460.48,73.07c-27.91,5.53-64.76,20-64.76,20-13.43,5.79-12.9.26-12.9.26a11.42,11.42,0,0,0,4.56-6c2.65-7.53-.87-17.48-.87-17.48-6.06-17.11,3.95-18.69,3.95-18.69,26.32-17.11,71.6-19.48,71.6-19.48a5,5,0,0,1,1.66-.08c8.43,1,9.13,24.83,9.13,24.83C474.17,73.07,460.48,73.07,460.48,73.07Z" fill="#849cf7"/><path d="M373.63,26.11s-8.71,4.58-4.76,13L386.71,89s5-6.43-2.06-25.4c0,0-.35-3-12.28-33.76C372.37,29.85,371.55,28.63,373.63,26.11Z" fill="#849cf7"/><path d="M373.63,26.11s-8.71,4.58-4.76,13L386.71,89s5-6.43-2.06-25.4c0,0-.35-3-12.28-33.76C372.37,29.85,371.55,28.63,373.63,26.11Z" opacity="0.3"/><path d="M460.48,73.07c-27.91,5.53-64.76,20-64.76,20-13.43,5.79-12.9.26-12.9.26a11.42,11.42,0,0,0,4.56-6c7.93,2.15,22-3.53,22-3.53,17.9-8.68,55.28-15.53,55.28-15.53,13.84-5,.26-34.12-1-36.67,8.43,1,9.13,24.83,9.13,24.83C474.17,73.07,460.48,73.07,460.48,73.07Z" opacity="0.2"/><rect x="412.03" y="93.04" width="42.65" height="6.97" rx="3.48" transform="translate(-9.22 131.81) rotate(-17.12)" fill="#849cf7"/><polygon points="444.63 177.56 444.63 206.26 430.15 200.2 429.8 190.09 429.37 177.56 444.63 177.56" fill="#ff8d85"/><polygon points="426.47 201.52 428.31 191.78 439.37 200.99 439.63 209.94 426.47 201.52" fill="#ebb4f4"/><path d="M444.55,191.12s8.77,1.19,7.72,10.93c0,0-5.15-7.1-7.58,1.18Z" fill="#ebb4f4"/><path d="M444.63,177.56v16.05c-8.05,1.34-12.86-1.78-14.83-3.52l-.43-12.53Z" fill="#f97673"/><ellipse cx="442.23" cy="163.13" rx="17.76" ry="27.73" transform="translate(-28.84 146.53) rotate(-18.23)" fill="#ff8d85"/><path d="M456.4,151.12s-4.48-10.26-13.08-3c0,0-12.37-1.9-15.27,5.61a8.1,8.1,0,0,0,.47,6.65c1.13,2.14,2.7,5.82,1.82,8.35a2.25,2.25,0,0,1-.19.45l-2.07,4.51-.14.3A33.3,33.3,0,0,0,434.55,184s-6.79,3.63-13.26-5.07c-.38-.51-.76-1.06-1.14-1.66,0,0-20.27-22.38-2.89-39.75,12.69-12.69,27.76-7,35-3a12.82,12.82,0,0,1,4.83,4.67,11.93,11.93,0,0,1,1.66,5C458.94,146.59,458.62,149.92,456.4,151.12Z" fill="#1f2d49"/><path d="M456.27,151s-4.22-10-12.95-2.91c0,0-12.37-1.9-15.27,5.61a8.1,8.1,0,0,0,.47,6.65c1.13,2.14,2.7,5.82,1.82,8.35l-3.61-2.18S419.1,143.08,441,144.66a18.45,18.45,0,0,1,16.11-5.42,11.93,11.93,0,0,1,1.66,5C458.94,146.59,458.49,149.79,456.27,151Z" opacity="0.2"/><path d="M434.55,184s-6.79,3.63-13.26-5.07A13.2,13.2,0,0,0,426,173.7l2.11,0-.14.3A33.3,33.3,0,0,0,434.55,184Z" opacity="0.2"/><ellipse cx="427.52" cy="169.93" rx="3.95" ry="5.79" transform="translate(-31.56 140.05) rotate(-17.95)" fill="#ff8d85"/><path d="M569.94,429c-9.39,11-20.89,7.13-25.9,4.62a21.06,21.06,0,0,1-2.53-1.46l-13.43-71.6c-2.1-5.27-41.33-2.9-41.33-2.9-53.17,5.27-41.06-56.33-41.06-56.33l7.68-2.18L467,295.23,498.6,286l11.58-1.32c-15.79,23.7,9.48,36.6,9.48,36.6l23.69,7.37c15.53,3.15,15.79,17.37,15.79,17.37Z" fill="#ebb4f4"/><path d="M544.11,433.39l-.07.19a21.06,21.06,0,0,1-2.53-1.46l-13.43-71.6c-2.1-5.27-41.33-2.9-41.33-2.9-53.17,5.27-41.06-56.33-41.06-56.33l7.68-2.18A17.81,17.81,0,0,1,457.15,327l-.93.9s8.95,16.84,36.59,18.16l24.48,1.32s15-.27,17.64,26.06Z" opacity="0.2"/><path d="M445.42,295l.27,6.32s31.85,0,52.91-15.27c0,0,1-2.89-3.42-4.74C495.18,281.28,490.44,292.34,445.42,295Z" fill="#272b35"/><path d="M232.08,574.37,220.88,609s18.16,25.27,45,19.22L283,600.6Z" fill="#ffc345"/><path d="M232.08,574.37l-3.57,10.17S268.18,608.91,283,600.6Z" opacity="0.2"/><path d="M355.92,608l11.58,39.49s24.22,20.53,56.07-7.38l2.11-41.59Z" fill="#ffc345"/><path d="M355.92,608l4.46,14.8s41.45-6.46,54.82-22.74Z" opacity="0.2"/><path d="M494.39,570.59c-52.92,39.75-108.72,40-108.72,40-168.48,20-183.37-83.71-184.22-103.66-.11-2.44-.29-4.87-.57-7.29C185.42,367.82,304.59,326,304.59,326l5,7.9L349.08,321l4.73,8.16,47.65-4.47,10.79,22.9,36.6,2.63,3.42,56.6L484.65,439l-25.54,35,26.59,43.7-13.95,37.9Z" fill="#ffc345"/><path d="M494.39,570.59s24.74-15.27,41.33-38.17c0,0-40.7.7-51.55-10.31l-12.42,33.47Z" fill="#ffc345"/><path d="M494.39,570.59s24.74-15.27,41.33-38.17c0,0-40.7.7-51.55-10.31l-12.42,33.47Z" opacity="0.2"/><path d="M530.71,534.52s-26.65,25-39.65,33.85l-19.31-12.79,11.68-31.5S495.18,534.26,530.71,534.52Z" opacity="0.2"/><path d="M193.68,515.31S208.24,484.77,255.1,505c0,0,47.64,18.16,32.64,55.81,0,0-10.53,24.22-50.54,11.32Z" fill="#ffc345"/><path d="M193.68,515.31S208.24,484.77,255.1,505c0,0,47.64,18.16,32.64,55.81,0,0-10.53,24.22-50.54,11.32Z" opacity="0.2"/><path d="M277.21,487.93a1.36,1.36,0,0,1-.79-.26,1.32,1.32,0,0,1-.26-1.85,44.21,44.21,0,0,1,14.54-11.44,48.57,48.57,0,0,1,17.94-5.07,60.6,60.6,0,0,1,24.8,3.42,1.32,1.32,0,1,1-.85,2.49c-18.6-6.38-32.4-2.7-40.7,1.51a42.25,42.25,0,0,0-13.63,10.67A1.3,1.3,0,0,1,277.21,487.93Z" fill="#272b35"/><path d="M236.41,480.3a1.32,1.32,0,0,1-1.3-1.09,32.4,32.4,0,0,0-14.22-22,35.43,35.43,0,0,0-11.33-5.06,1.32,1.32,0,0,1,.52-2.58,37.42,37.42,0,0,1,12.18,5.4,35.31,35.31,0,0,1,15.44,23.83,1.31,1.31,0,0,1-1.06,1.52Z" fill="#272b35"/><path d="M232.76,439.23a16.14,16.14,0,0,1-2.29-.14.92.92,0,0,1,.29-1.82,20.09,20.09,0,0,0,7.18-.53,21.43,21.43,0,0,0,13-9.59.92.92,0,0,1,1.27-.28.93.93,0,0,1,.28,1.28,23.14,23.14,0,0,1-19.69,11.08Z" fill="#272b35"/><path d="M306.43,449.63h-.13c-12.65-1.81-19.25-6.51-22.56-10.13a16.29,16.29,0,0,1-4.28-7.75.92.92,0,1,1,1.82-.29h0a14.86,14.86,0,0,0,3.91,6.9c3.12,3.36,9.36,7.73,21.37,9.44a.93.93,0,0,1,.78,1A.92.92,0,0,1,306.43,449.63Z" fill="#272b35"/><path d="M431.21,433.7c-11.32.79-25.27,6.06-25.27,6.06-25.8-39-61.87-45.28-61.87-45.28,15.27-15.8,25.8-24,25.8-24q2.42-1.65,4.7-3C432.71,332.72,431.21,433.7,431.21,433.7Z" fill="#ffc345"/><path d="M431.21,433.7c-11.32.79-25.27,6.06-25.27,6.06-25.8-39-61.87-45.28-61.87-45.28,15.27-15.8,25.8-24,25.8-24q2.42-1.65,4.7-3C432.71,332.72,431.21,433.7,431.21,433.7Z" opacity="0.2"/><path d="M405.94,439.76c-25.8-39-61.87-45.28-61.87-45.28,15.27-15.8,25.8-24,25.8-24q2.42-1.65,4.7-3c12.42-2.21,26.11-.41,29.26,16.71C403.83,384.21,409.1,401.32,405.94,439.76Z" opacity="0.2"/><path d="M285.11,352.62s-4.48,6.37-15.9,11.52a11.15,11.15,0,0,1-3.77,1c-6.58.56-29.62,3.79-36.14,22,0,0-20.6-36.48-9.12-53.86a16.7,16.7,0,0,1,2.69-3.16,17.3,17.3,0,0,1,10.91-4.44C243.14,325.2,267.24,326.86,285.11,352.62Z" fill="#ffc345"/><path d="M285.11,352.62s-4.48,6.37-15.9,11.52a11.15,11.15,0,0,1-3.77,1c-6.58.56-29.62,3.79-36.14,22,0,0-20.6-36.48-9.12-53.86a16.7,16.7,0,0,1,2.69-3.16,17.3,17.3,0,0,1,10.91-4.44C243.14,325.2,267.24,326.86,285.11,352.62Z" opacity="0.2"/><path d="M267.35,364.79a12.46,12.46,0,0,1-1.91.31c-6.58.56-29.62,3.79-36.14,22,0,0-20.6-36.48-9.12-53.86,7.92-1.88,19.37-1.56,28.86,10.68Z" opacity="0.2"/><ellipse cx="236.47" cy="539" rx="34.2" ry="51.47" transform="translate(-349.23 597.18) rotate(-71.98)" fill="#ffc345"/><ellipse cx="214.82" cy="536.37" rx="8.16" ry="13.43" fill="#fff" opacity="0.4"/><ellipse cx="247.2" cy="542.42" rx="8.16" ry="13.43" fill="#fff" opacity="0.4"/><path d="M795.6,394.41l3.53,1.59-3.29,7.23h0a10.47,10.47,0,0,1-1.53,2.41,9.46,9.46,0,0,1-.68.74,14,14,0,0,1-4.27,2.82,17.26,17.26,0,0,1-1.81.69c-.64.21-1.34.4-2,.56a23.89,23.89,0,0,1-2.79.47c-1,.12-2.06.2-3.13.23h-2.45C765,410.7,750.67,404.8,741,396.24c-.67-.59-1.34-1.18-1.91-1.79a34.67,34.67,0,0,1-2.49-2.68c-.78-.93-1.22-1.49-1.76-2.22s-.88-1.28-1.26-1.91-.73-1.25-1-1.87h0a18.15,18.15,0,0,1-1.81-5.36c0-.36-.11-.72-.13-1.08a11.05,11.05,0,0,1,.44-4.39,9,9,0,0,1,.48-1.25h0l3.11-6.84,3.24,1.46c.37-.16.78-.32,1.19-.47a24.68,24.68,0,0,1,5.24-1.17c1.12-.13,2.29-.21,3.46-.24a42.51,42.51,0,0,1,4.66.19,63.05,63.05,0,0,1,31.57,13,47.38,47.38,0,0,1,3.72,3.26c1,.93,1.88,1.9,2.75,2.92a34.2,34.2,0,0,1,3.28,4.56A23,23,0,0,1,795.6,394.41Z" fill="#e0e0e0"/><path d="M747.19,400.94l6.69-14.73,5.12,3L752.3,404A57,57,0,0,1,747.19,400.94Z" fill="#fff" opacity="0.15" style="isolation:isolate"/><path d="M795.86,403.23h0a10.1,10.1,0,0,1-1.52,2.41c-.22.26-.44.5-.68.74a13.91,13.91,0,0,1-4.28,2.82l-.64.27,6.87-15.1h0l3.54,1.59Z" opacity="0.05" style="isolation:isolate"/><path d="M781,388.33l3,.6-10,22c-1-.1-2-.25-3-.42Z" fill="#fff" opacity="0.15" style="isolation:isolate"/><path d="M763.18,408.56l8.67-19.07,5.2,2.85-8,17.76A54.45,54.45,0,0,1,763.18,408.56Z" fill="#fff" opacity="0.15" style="isolation:isolate"/><path d="M734.61,366.89l3.25,1.46c.37-.16.77-.32,1.19-.47a24.73,24.73,0,0,1,5.23-1.17c1.13-.13,2.29-.21,3.47-.24a42.62,42.62,0,0,1,4.66.19c1.5.15,3,.38,4.55.67L743,397.94c-.71-.56-1.34-1.14-2-1.71a19.57,19.57,0,0,1-1.92-1.8c-.88-.85-1.71-1.75-2.49-2.67s-1.22-1.49-1.75-2.23a22.13,22.13,0,0,1-1.26-1.9c-.37-.63-.74-1.26-1-1.87h0a18.15,18.15,0,0,1-1.81-5.36c0-.36-.11-.72-.14-1.09a11.26,11.26,0,0,1,.45-4.39,9.34,9.34,0,0,1,.48-1.24h0Z" fill="#fff" opacity="0.15" style="isolation:isolate"/><path d="M730.72,380.45c0-.36-.11-.72-.14-1.08A11.24,11.24,0,0,1,731,375a9,9,0,0,1,.48-1.25h0l3.1-6.84,3.25,1.46h0l.91.89-6.93,15.22A18,18,0,0,1,730.72,380.45Z" fill="#fff" opacity="0.15" style="isolation:isolate"/><path d="M794,378.12a39.12,39.12,0,0,0-2.74-2.9q-1.79-1.74-3.72-3.28a63.22,63.22,0,0,0-31.57-13,40.25,40.25,0,0,0-4.66-.18,33.67,33.67,0,0,0-3.47.22,25.38,25.38,0,0,0-5.23,1.18,15.77,15.77,0,0,0-4.57,2.41,10.66,10.66,0,0,0-3.75,5.36,11.48,11.48,0,0,0-.44,4.4,7.23,7.23,0,0,0,.14,1.09,18.52,18.52,0,0,0,1.8,5.36h0c.31.61.66,1.24,1,1.86s.8,1.27,1.27,1.91,1.11,1.48,1.74,2.22,1.61,1.81,2.49,2.68c.62.62,1.25,1.21,1.92,1.78,9.68,8.57,24,14.48,36.15,14.92h2.45a26.81,26.81,0,0,0,3.14-.23,26.48,26.48,0,0,0,2.78-.48,15.44,15.44,0,0,0,2-.55,16.55,16.55,0,0,0,1.82-.68,13.73,13.73,0,0,0,4.26-2.83c.24-.24.47-.48.7-.73a10.75,10.75,0,0,0,2-3.75,12.66,12.66,0,0,0-.08-6.88,20.72,20.72,0,0,0-2.25-5.23A32.54,32.54,0,0,0,794,378.12Z" fill="#f0f0f0"/><path d="M746.32,390.86c-.71-.56-1.34-1.14-2.06-1.74a22.4,22.4,0,0,1-1.92-1.78c-.88-.86-1.71-1.76-2.49-2.68s-1.22-1.49-1.74-2.23-.88-1.27-1.27-1.91-.74-1.25-1.05-1.86h0a18.52,18.52,0,0,1-1.8-5.36c0-.37-.11-.73-.14-1.08a11.53,11.53,0,0,1,.44-4.41,10.64,10.64,0,0,1,3.75-5.35,15.53,15.53,0,0,1,4.57-2.41,24.75,24.75,0,0,1,5.23-1.18c1-.12,2-.19,3.08-.22Z" fill="#fff" opacity="0.15" style="isolation:isolate"/><path d="M735.11,377.27a17.39,17.39,0,0,1-1.16-3.91c0-.38-.11-.74-.14-1.09a11.48,11.48,0,0,1,.44-4.4,10.58,10.58,0,0,1,2.84-4.52Z" fill="#fff" opacity="0.15" style="isolation:isolate"/><path d="M755.52,396.87a39.38,39.38,0,0,1-5.1-3l5-34.95h.51a48.23,48.23,0,0,1,4.92.73Z" fill="#fff" opacity="0.15" style="isolation:isolate"/><path d="M772.2,403c-1.93-.41-3.85-.92-5.8-1.54L771.92,363a59.72,59.72,0,0,1,5.64,2.59Z" fill="#fff" opacity="0.15" style="isolation:isolate"/><path d="M777.25,403.81c-1-.11-2-.26-3.08-.44l5.26-36.79c1,.55,2,1.12,2.91,1.71Z" fill="#fff" opacity="0.15" style="isolation:isolate"/><path d="M795.18,379.66h0c.32.42.63.83.91,1.25l.28.41.29.43.58.94a20.45,20.45,0,0,1,2.25,5.22,12.66,12.66,0,0,1,.08,6.88,10.5,10.5,0,0,1-2,3.75c-.23.26-.45.5-.69.74a14,14,0,0,1-4.26,2.83l-.66.26Z" fill="#e0e0e0" opacity="0.3" style="isolation:isolate"/><path d="M787,378.89c-7.58-8.86-22.07-15.06-33-14.32a7.86,7.86,0,0,0-1.33.14c-11.12,1.33-13.72,10-5.82,19.2s23.32,15.57,34.42,14.19l1.34-.21C792.5,396,794.53,387.74,787,378.89Z" fill="#e0e0e0"/><path d="M786.1,379l-.75-.84c-7.42-8-20.67-13.51-30.8-12.83h-.28l-1,.11a16.2,16.2,0,0,0-5.36,1.55,7.85,7.85,0,0,0-4.47,8.52,15.83,15.83,0,0,0,3.17,6.91,17,17,0,0,0,1.1,1.34c.4.43.74.83,1.14,1.24a29.92,29.92,0,0,0,2.68,2.48,44.51,44.51,0,0,0,24.1,9.95,27.87,27.87,0,0,0,3.42,0,11.46,11.46,0,0,0,1.55-.15c.51-.06.86-.12,1.26-.2l.33-.07a11.79,11.79,0,0,0,6.18-3.05c2.38-2.45,2.82-6,1.11-9.89A20.91,20.91,0,0,0,786.1,379Z" fill="#e0e0e0"/><path d="M786.1,379l-.75-.84c-7.42-8-20.67-13.51-30.8-12.83h-.28l-1,.11a16.2,16.2,0,0,0-5.36,1.55,7.85,7.85,0,0,0-4.47,8.52,15.83,15.83,0,0,0,3.17,6.91,17,17,0,0,0,1.1,1.34c.4.43.74.83,1.14,1.24a29.92,29.92,0,0,0,2.68,2.48,44.51,44.51,0,0,0,24.1,9.95,27.87,27.87,0,0,0,3.42,0,11.46,11.46,0,0,0,1.55-.15c.51-.06.86-.12,1.26-.2l.33-.07a11.79,11.79,0,0,0,6.18-3.05c2.38-2.45,2.82-6,1.11-9.89A20.91,20.91,0,0,0,786.1,379Z" opacity="0.13" style="isolation:isolate"/><path d="M784.13,380.85l.75.85a20.73,20.73,0,0,1,3.34,5.14,10.2,10.2,0,0,1,.84,6.32c-.23.3-.47.59-.73.87a11.79,11.79,0,0,1-6.18,3.05l-.33.07c-.4.08-.83.15-1.26.2s-1,.11-1.55.15a27.87,27.87,0,0,1-3.42,0,44.51,44.51,0,0,1-24.1-9.95,29.92,29.92,0,0,1-2.68-2.48c-.4-.41-.78-.83-1.14-1.24s-.76-.93-1.1-1.34a15.83,15.83,0,0,1-3.17-6.91,4.49,4.49,0,0,1,3.25-5.84,15.24,15.24,0,0,1,5.36-1.55c.35,0,.7-.08,1-.11h.29C763.46,367.34,776.72,372.85,784.13,380.85Z" fill="#e0e0e0"/><path d="M796.86,399.28c-7.34,6.44-19,5-28,2.68-13.39-3.95-26.53-11.74-33-23.4h0a14.73,14.73,0,0,1-1.62-10.71,14.75,14.75,0,0,0,1.34,10.89h0c5.09,9.69,15.08,16.63,25.63,21.09C772.06,404,787.33,407.54,796.86,399.28Z" fill="#f5f5f5"/><path d="M750.92,381.34c2.88,3.12,6.7,4,10.46,4.39l-1.26.49L758.44,390a17.55,17.55,0,0,0,6,2.94,22.39,22.39,0,0,0,6.87.77l2.54,2.74,5.44-.67,1.68-3.71-.63-.71-.14-.14a4.07,4.07,0,0,0,.48-.83c0-.1.08-.2.11-.3.16-.48,1.2-2.53,1.58-3.4a1.6,1.6,0,0,0,.1-.31c.35-1.1-.09-2.42-1.51-3.95h0a12.45,12.45,0,0,0-5.28-3.31l-.49-.16h0l-.54-.14-.47-.12h-.2l-.36-.08a26.19,26.19,0,0,0-3.06-.43c-.46,0-.91-.08-1.34-.1l1.66-.65,1.68-3.71a19.55,19.55,0,0,0-12-3.39l-2.56-2.75-5.35.77-1.69,3.71.79.85a3.46,3.46,0,0,0-.41.66h0c-.24.59-1.41,3-1.68,3.68h0C749,378.34,749.41,379.7,750.92,381.34Z" fill="#e0e0e0"/><path d="M782.25,386.81c-.43.95-1.34,2.79-1.5,3.23a2.83,2.83,0,0,1-.11.31,3.59,3.59,0,0,1-.48.83l-1.82-2A4.69,4.69,0,0,0,782.25,386.81Z" opacity="0.1" style="isolation:isolate"/><path d="M759.45,376.36c-.76-.83-.58-1.64,1.67-2a7.6,7.6,0,0,1,5.89,1.34l5.42-2.16-1.7,3.7-1.65.66H769l-2.06-.1h-.79a25.14,25.14,0,0,1-4.34-.32,4.53,4.53,0,0,1-1.66-.63A3.35,3.35,0,0,1,759.45,376.36Z" opacity="0.2" style="isolation:isolate"/><path d="M751.5,372.81l-.79-.86,1.69-3.7,2.54,2.75A6.69,6.69,0,0,0,751.5,372.81Z" opacity="0.13" style="isolation:isolate"/><path d="M775.5,392.67,781,392l-1.69,3.71-5.45.66-2.53-2.74a22.8,22.8,0,0,1-6.88-.76,17.76,17.76,0,0,1-6-2.95l1.68-3.71a16.78,16.78,0,0,0,6,3A22.56,22.56,0,0,0,773,390Z" opacity="0.1" style="isolation:isolate"/><path d="M771.28,393.67a17.15,17.15,0,0,1-5.67-.23,13.85,13.85,0,0,1-5.12-2.14,25.94,25.94,0,0,0,5.25,1.69c.9.19,1.82.34,2.74.44S770.33,393.6,771.28,393.67Z" opacity="0.13" style="isolation:isolate"/><path d="M749.4,377.21h0c.27-.65,1.43-3.08,1.67-3.68-.44,1.12,0,2.49,1.52,4.12,3.36,3.62,7.91,4.32,12.27,4.52,4,.18,7.22-.16,8.84,1.59,1,1.1.28,1.77-1.48,2a8.35,8.35,0,0,1-6.35-1.76l-4.49,1.75h0c-3.79-.34-7.58-1.34-10.46-4.41C749.41,379.7,749,378.34,749.4,377.21Z" opacity="0.13" style="isolation:isolate"/><polygon points="765.32 379.49 767.01 375.78 772.43 373.62 770.74 377.33 765.32 379.49" fill="#e0e0e0"/><polygon points="765.32 379.49 767.01 375.78 772.43 373.62 770.74 377.33 765.32 379.49" opacity="0.1" style="isolation:isolate"/><polygon points="752.4 368.25 754.94 371 751.5 372.82 750.71 371.96 752.4 368.25" fill="#e0e0e0"/><polygon points="752.4 368.25 754.94 371 751.5 372.82 750.71 371.96 752.4 368.25" opacity="0.2" style="isolation:isolate"/><path d="M780.3,391.33l-2-2.13a4.67,4.67,0,0,0,4-2.55,1.82,1.82,0,0,0,.11-.3c.35-1.1-.09-2.43-1.51-4h0a12.39,12.39,0,0,0-5.28-3.3l-.49-.16h0l-.54-.15-.47-.12H774l-.36-.08a28.7,28.7,0,0,0-3.07-.43c-.49,0-1-.08-1.48-.11L767,378h-.79a27.16,27.16,0,0,1-4.32-.34,5,5,0,0,1-1.67-.61,3.85,3.85,0,0,1-.65-.56c-.76-.83-.59-1.64,1.66-2a7.59,7.59,0,0,1,5.89,1.34l5.42-2.16a19.6,19.6,0,0,0-12-3.38l-2.56-2.75-5.35.76L755.1,371c-2.06.55-3.4,1.34-3.85,2.48h0c-.45,1.12,0,2.49,1.52,4.12,3.34,3.62,7.9,4.31,12.26,4.51,4,.18,7.23-.16,8.85,1.6,1,1.1.26,1.76-1.5,2A8.4,8.4,0,0,1,766,384l-5.74,2.24a16.3,16.3,0,0,0,2,1.34,17.48,17.48,0,0,0,3.91,1.6,22.46,22.46,0,0,0,6.87.77l2.55,2.68,5.43-.67Z" fill="#e0e0e0"/><path d="M780.3,391.33l-2-2.13a4.67,4.67,0,0,0,4-2.55,1.82,1.82,0,0,0,.11-.3c.35-1.1-.09-2.43-1.51-4h0a12.39,12.39,0,0,0-5.28-3.3l-.49-.16h0l-.54-.15-.47-.12H774l-.36-.08a28.7,28.7,0,0,0-3.07-.43c-.49,0-1-.08-1.48-.11L767,378h-.79a27.16,27.16,0,0,1-4.32-.34,5,5,0,0,1-1.67-.61,3.85,3.85,0,0,1-.65-.56c-.76-.83-.59-1.64,1.66-2a7.59,7.59,0,0,1,5.89,1.34l5.42-2.16a19.6,19.6,0,0,0-12-3.38l-2.56-2.75-5.35.76L755.1,371c-2.06.55-3.4,1.34-3.85,2.48h0c-.45,1.12,0,2.49,1.52,4.12,3.34,3.62,7.9,4.31,12.26,4.51,4,.18,7.23-.16,8.85,1.6,1,1.1.26,1.76-1.5,2A8.4,8.4,0,0,1,766,384l-5.74,2.24a16.3,16.3,0,0,0,2,1.34,17.48,17.48,0,0,0,3.91,1.6,22.46,22.46,0,0,0,6.87.77l2.55,2.68,5.43-.67Z" fill="#f0f0f0"/><path d="M752.61,377.63a13.18,13.18,0,0,0,4.57,3,20.38,20.38,0,0,0,5.5,1.22c1.9.21,3.82.21,5.73.28a17.14,17.14,0,0,1,2.86.31,4.48,4.48,0,0,1,2.45,1.34,4.48,4.48,0,0,0-2.48-1.17,18,18,0,0,0-2.84-.23,50.07,50.07,0,0,1-5.74-.22,20.22,20.22,0,0,1-5.58-1.34,11.93,11.93,0,0,1-4.47-3.19Z" fill="#fff"/><polygon points="775.5 392.71 773.81 396.42 771.27 393.67 772.95 389.96 775.5 392.71" fill="#e0e0e0"/><polygon points="775.5 392.71 773.81 396.42 771.27 393.67 772.95 389.96 775.5 392.71" opacity="0.13" style="isolation:isolate"/><polygon points="780.93 392.04 775.7 392.3 772.95 389.96 775.5 392.71 780.93 392.04" fill="#fafafa"/><polygon points="760.37 370.24 757.66 367.88 752.4 368.25 757.81 367.49 760.37 370.24" fill="#fafafa"/><path d="M772.43,373.62a19.76,19.76,0,0,0-1.87-1.13l-.29,2Z" fill="#fff" opacity="0.15" style="isolation:isolate"/><path d="M752.72,377.75a12.76,12.76,0,0,0,5.07,3.23l1.68-11.71-1.66-1.78-3.68.52-.27,1.82,1.08,1.17a13,13,0,0,0-1.34.43Z" fill="#fff" opacity="0.15" style="isolation:isolate"/><path d="M780.4,381.86a12.21,12.21,0,0,0-2.87-2l-1.83,12.81,3.2-.41.31-2.14-.87-.95a5.25,5.25,0,0,0,1-.16Z" fill="#fff" opacity="0.15" style="isolation:isolate"/><path d="M775.08,378.9l-.53-.15-.47-.12h-.2l-.36-.08a29.06,29.06,0,0,0-3.07-.43h-.68l-.61,4.25c2,.09,3.57.39,4.56,1.46s.26,1.77-1.5,2a7.87,7.87,0,0,1-3.51-.29l-.6,4.17a22.44,22.44,0,0,0,4.84.32l1,1,1.7-11.92-.47-.16Z" fill="#fff" opacity="0.15" style="isolation:isolate"/><path d="M224.78,280.17l3.6,1.41L225.44,289h0a10.6,10.6,0,0,1-1.41,2.47c-.2.26-.41.52-.64.77a14.15,14.15,0,0,1-4.13,3,16.48,16.48,0,0,1-1.78.77,20.09,20.09,0,0,1-2,.65c-.87.24-1.78.44-2.76.61a29.91,29.91,0,0,1-3.12.38c-.8,0-1.61.09-2.44.09-12.16.13-26.78-5.09-36.81-13.18-.68-.55-1.34-1.11-2-1.7a34.76,34.76,0,0,1-2.61-2.54,20.92,20.92,0,0,1-1.85-2.14c-.51-.73-.95-1.22-1.34-1.84s-.79-1.22-1.13-1.82h0a18.59,18.59,0,0,1-2-5.22c-.08-.36-.14-.72-.19-1.07a11.5,11.5,0,0,1,.23-4.41,9.44,9.44,0,0,1,.42-1.27h0l2.78-7,3.3,1.34c.38-.19.77-.36,1.18-.52A25.07,25.07,0,0,1,172.3,255a33.22,33.22,0,0,1,3.44-.39,40.59,40.59,0,0,1,4.68,0,63.13,63.13,0,0,1,32.13,11.5c1.34,1,2.68,2,3.89,3.1a37.68,37.68,0,0,1,2.86,2.78,31.52,31.52,0,0,1,3.49,4.4A22.43,22.43,0,0,1,224.78,280.17Z" fill="#e0e0e0"/><path d="M176.79,289l6-15,5.25,2.76-6,15A55.41,55.41,0,0,1,176.79,289Z" fill="#fff" opacity="0.15" style="isolation:isolate"/><path d="M225.44,289h0a10.6,10.6,0,0,1-1.41,2.47c-.2.26-.41.52-.64.77a14.15,14.15,0,0,1-4.13,3l-.64.3,6.15-15.4h0l3.6,1.42Z" opacity="0.05" style="isolation:isolate"/><path d="M209.93,274.77l3.08.47-9,22.4c-1-.07-2-.16-3.08-.28Z" fill="#fff" opacity="0.15" style="isolation:isolate"/><path d="M193.06,295.81l7.76-19.43,5.36,2.59L199,297.06A56,56,0,0,1,193.06,295.81Z" fill="#fff" opacity="0.15" style="isolation:isolate"/><path d="M162.62,255.55l3.31,1.34a11.64,11.64,0,0,1,1.18-.52,25,25,0,0,1,5.16-1.42,33.1,33.1,0,0,1,3.45-.39,40.42,40.42,0,0,1,4.67,0c1.5.08,3,.23,4.57.46L172.5,286.23c-.73-.53-1.44-1.07-2.14-1.62s-1.34-1.11-2-1.7a34.76,34.76,0,0,1-2.61-2.54,20,20,0,0,1-1.85-2.15c-.51-.72-.95-1.22-1.34-1.83s-.79-1.22-1.13-1.82h0a18.59,18.59,0,0,1-2-5.22c-.08-.37-.14-.73-.19-1.08a11.44,11.44,0,0,1,.23-4.4,9.44,9.44,0,0,1,.42-1.27h0Z" fill="#fff" opacity="0.15" style="isolation:isolate"/><path d="M159.38,269.28c-.08-.36-.13-.72-.19-1.07a11.5,11.5,0,0,1,.23-4.41,9.49,9.49,0,0,1,.43-1.27h0l2.77-7,3.31,1.34h0l.95.85-6.19,15.5A17.2,17.2,0,0,1,159.38,269.28Z" fill="#fff" opacity="0.15" style="isolation:isolate"/><path d="M222.38,264a39.86,39.86,0,0,0-2.86-2.79c-1-.89-2.52-2.1-3.89-3.09a62.93,62.93,0,0,0-32.13-11.49,40.25,40.25,0,0,0-4.66,0,33.3,33.3,0,0,0-3.46.4,25.69,25.69,0,0,0-5.17,1.41,15.48,15.48,0,0,0-4.44,2.68,10.59,10.59,0,0,0-3.51,5.47A11.11,11.11,0,0,0,162,261a9.75,9.75,0,0,0,.19,1.08,18.26,18.26,0,0,0,2.05,5.23h0c.34.59.71,1.2,1.12,1.8s.87,1.24,1.34,1.85,1.19,1.42,1.86,2.14,1.69,1.73,2.6,2.55c.64.57,1.34,1.14,2,1.69,10.07,8,24.65,13.32,36.79,13.19a18,18,0,0,0,2.45-.11,30.58,30.58,0,0,0,3.12-.38,26.1,26.1,0,0,0,2.76-.6c.7-.19,1.34-.41,2-.64a15.71,15.71,0,0,0,1.8-.78,14.16,14.16,0,0,0,4.11-3q.35-.37.66-.78a10.54,10.54,0,0,0,1.84-3.83,12.55,12.55,0,0,0-.4-6.87,20.68,20.68,0,0,0-2.49-5.11A31.87,31.87,0,0,0,222.38,264Z" fill="#f0f0f0"/><path d="M175.39,278.93c-.72-.53-1.44-1.07-2.14-1.63s-1.34-1.11-2-1.69c-.91-.81-1.78-1.67-2.6-2.54a23.17,23.17,0,0,1-1.86-2.14c-.52-.71-.94-1.24-1.34-1.85s-.79-1.21-1.13-1.81h0a18.2,18.2,0,0,1-2.05-5.22,9.91,9.91,0,0,1-.18-1.09,11.15,11.15,0,0,1,.16-4.38,10.59,10.59,0,0,1,3.49-5.46,15.9,15.9,0,0,1,4.45-2.68,25,25,0,0,1,5.17-1.4,28.52,28.52,0,0,1,3-.37Z" fill="#fff" opacity="0.15" style="isolation:isolate"/><path d="M163.6,266a17.15,17.15,0,0,1-1.34-3.86,10.18,10.18,0,0,1-.19-1.08,11.25,11.25,0,0,1,.19-4.44,10.27,10.27,0,0,1,2.68-4.63Z" fill="#fff" opacity="0.15" style="isolation:isolate"/><path d="M184.9,284.5c-1.79-.85-3.55-1.78-5.23-2.78L183,246.59h.51a47.66,47.66,0,0,1,4.92.5Z" fill="#fff" opacity="0.15" style="isolation:isolate"/><path d="M201.84,289.83a55.89,55.89,0,0,1-5.85-1.26l3.68-38.68q2.94,1,5.76,2.31Z" fill="#fff" opacity="0.15" style="isolation:isolate"/><path d="M206.92,290.4c-1-.06-2-.15-3.1-.29l3.53-37c1,.49,2,1,3,1.56Z" fill="#fff" opacity="0.15" style="isolation:isolate"/><path d="M223.68,265.46h0c.34.4.66.81,1,1.21l.3.4c.1.13.21.27.3.41l.63.9a21.29,21.29,0,0,1,2.49,5.12,12.54,12.54,0,0,1,.4,6.87,10.64,10.64,0,0,1-1.85,3.83,8,8,0,0,1-.65.77,14.19,14.19,0,0,1-4.11,3l-.66.29Z" fill="#e0e0e0" opacity="0.3" style="isolation:isolate"/><path d="M215.47,265.07c-8-8.47-22.76-14-33.63-12.73a7,7,0,0,0-1.34.2c-11,1.9-13.22,10.61-4.89,19.43s24,14.46,35,12.55c.45-.07.89-.16,1.34-.27C221.77,281.91,223.46,273.55,215.47,265.07Z" fill="#e0e0e0"/><path d="M214.59,265.23c-.25-.28-.52-.54-.8-.81-7.77-7.64-21.27-12.51-31.35-11.36h-.27l-1,.16a15.92,15.92,0,0,0-5.27,1.8,7.82,7.82,0,0,0-4,8.7,15.62,15.62,0,0,0,3.48,6.7c.36.44.75.89,1.16,1.34s.78.8,1.19,1.19a34.67,34.67,0,0,0,2.79,2.35A44.55,44.55,0,0,0,205,284.09a25.71,25.71,0,0,0,3.4-.14,8.88,8.88,0,0,0,1.56-.21c.51-.09.84-.16,1.24-.25l.34-.08a11.85,11.85,0,0,0,6-3.35c2.28-2.56,2.54-6.08.64-9.92A20.71,20.71,0,0,0,214.59,265.23Z" fill="#e0e0e0"/><path d="M214.59,265.23c-.25-.28-.52-.54-.8-.81-7.77-7.64-21.27-12.51-31.35-11.36h-.27l-1,.16a15.92,15.92,0,0,0-5.27,1.8,7.82,7.82,0,0,0-4,8.7,15.62,15.62,0,0,0,3.48,6.7c.36.44.75.89,1.16,1.34s.78.8,1.19,1.19a34.67,34.67,0,0,0,2.79,2.35A44.55,44.55,0,0,0,205,284.09a25.71,25.71,0,0,0,3.4-.14,8.88,8.88,0,0,0,1.56-.21c.51-.09.84-.16,1.24-.25l.34-.08a11.85,11.85,0,0,0,6-3.35c2.28-2.56,2.54-6.08.64-9.92A20.71,20.71,0,0,0,214.59,265.23Z" opacity="0.13" style="isolation:isolate"/><path d="M212.7,267.18l.81.8a21.08,21.08,0,0,1,3.56,5,10.37,10.37,0,0,1,1.14,6.28,10.15,10.15,0,0,1-.7.89,11.78,11.78,0,0,1-6,3.35l-.34.08c-.4.1-.81.19-1.24.26s-1,.16-1.56.21a25.71,25.71,0,0,1-3.4.14,44.49,44.49,0,0,1-24.53-8.83,32.84,32.84,0,0,1-2.79-2.36c-.41-.38-.8-.79-1.19-1.19a16.91,16.91,0,0,1-1.16-1.34,15.53,15.53,0,0,1-3.48-6.69,8.4,8.4,0,0,1,0-3.16,8.84,8.84,0,0,1,3-2.79A15.91,15.91,0,0,1,180.1,256l1-.14h.28C191.44,254.66,204.92,259.53,212.7,267.18Z" fill="#e0e0e0"/><path d="M226.27,285c-7,6.78-18.75,5.91-27.8,4-13.62-3.31-27-10.47-34.06-21.79h0a14.75,14.75,0,0,1-2.11-10.71,14.6,14.6,0,0,0,1.9,10.79h0c5.54,9.44,15.83,15.9,26.58,19.85C201.75,290.84,217.16,293.66,226.27,285Z" fill="#f5f5f5"/><path d="M179.59,269.21c3,3,6.85,3.75,10.64,3.9l-1.23.55-1.51,3.79a20.12,20.12,0,0,0,2.1,1.26,17.3,17.3,0,0,0,4,1.41,22.89,22.89,0,0,0,6.91.45l2.67,2.67,5.36-.92,1.51-3.79-.68-.67-.15-.15a3.23,3.23,0,0,0,.45-.84,1.58,1.58,0,0,0,.09-.31c.13-.49,1.08-2.58,1.42-3.47a1.49,1.49,0,0,1,.09-.3c.3-1.11-.2-2.41-1.7-3.87h0a12.52,12.52,0,0,0-5.42-3.06l-.51-.13h0l-.54-.12-.48-.09h-.56a26.92,26.92,0,0,0-3.09-.3h-1.34l1.62-.74,1.51-3.77a19.54,19.54,0,0,0-12.21-2.81l-2.68-2.68-5.36,1L179,260l.83.83a2.2,2.2,0,0,0-.37.67h0c-.21.6-1.26,3.08-1.5,3.75h0C177.48,266.31,178,267.66,179.59,269.21Z" fill="#e0e0e0"/><path d="M211.11,273.22c-.38,1-1.22,2.83-1.34,3.29a1.58,1.58,0,0,0-.09.31,3.88,3.88,0,0,1-.46.85l-1.91-1.9A4.7,4.7,0,0,0,211.11,273.22Z" opacity="0.1" style="isolation:isolate"/><path d="M187.86,263.84c-.8-.79-.65-1.59,1.57-2a7.56,7.56,0,0,1,5.94,1.11l5.36-2.41-1.51,3.77-1.62.74h-3a25.16,25.16,0,0,1-4.34-.13,4.65,4.65,0,0,1-1.69-.54A3.25,3.25,0,0,1,187.86,263.84Z" opacity="0.2" style="isolation:isolate"/><path d="M179.76,260.68l-.83-.82,1.51-3.77,2.68,2.68A6.72,6.72,0,0,0,179.76,260.68Z" opacity="0.13" style="isolation:isolate"/><path d="M204.65,279.42l5.36-.94-1.51,3.77-5.36.94-2.68-2.68a22.61,22.61,0,0,1-6.91-.44,17.25,17.25,0,0,1-4-1.42,18.08,18.08,0,0,1-2.11-1.26L189,273.6a16.57,16.57,0,0,0,2.1,1.28,17.63,17.63,0,0,0,4,1.42,22.25,22.25,0,0,0,6.91.42Z" opacity="0.1" style="isolation:isolate"/><path d="M200.48,280.57a17.4,17.4,0,0,1-5.67,0,13.92,13.92,0,0,1-5.22-1.9,26.68,26.68,0,0,0,5.36,1.44c.91.15,1.82.24,2.75.31S199.54,280.54,200.48,280.57Z" opacity="0.13" style="isolation:isolate"/><path d="M177.86,265.17h0c.24-.69,1.34-3.16,1.5-3.77-.38,1.14.13,2.5,1.71,4,3.52,3.46,8,3.94,12.46,3.94,4,0,7.2-.51,8.9,1.16,1.07,1.05.36,1.76-1.34,2.09a8.32,8.32,0,0,1-6.41-1.47l-4.39,2h0c-3.81-.16-7.62-.94-10.65-3.91C178,267.66,177.48,266.32,177.86,265.17Z" opacity="0.13" style="isolation:isolate"/><polygon points="193.86 266.69 195.37 262.92 200.69 260.51 199.18 264.28 193.86 266.69" fill="#e0e0e0"/><polygon points="193.86 266.69 195.37 262.92 200.69 260.51 199.18 264.28 193.86 266.69" opacity="0.1" style="isolation:isolate"/><polygon points="180.44 256.09 183.11 258.71 179.76 260.68 178.93 259.86 180.44 256.09" fill="#e0e0e0"/><polygon points="180.44 256.09 183.11 258.71 179.76 260.68 178.93 259.86 180.44 256.09" opacity="0.2" style="isolation:isolate"/><path d="M209.37,277.81l-2.05-2a4.65,4.65,0,0,0,3.86-2.68,1,1,0,0,1,.09-.3c.29-1.11-.2-2.41-1.7-3.87h0a12.57,12.57,0,0,0-5.42-3.06l-.51-.13h0l-.54-.12-.48-.09h-.56a26.88,26.88,0,0,0-3.1-.3h-4.34a28.48,28.48,0,0,1-4.33-.12,4.73,4.73,0,0,1-1.69-.55,3.5,3.5,0,0,1-.68-.52c-.81-.79-.66-1.61,1.56-2a7.63,7.63,0,0,1,6,1.11l5.35-2.41a19.67,19.67,0,0,0-12.21-2.81l-2.68-2.68-5.35,1,2.68,2.68c-2,.64-3.34,1.54-3.73,2.68h0c-.37,1.14.14,2.49,1.72,4,3.5,3.45,8,3.93,12.45,3.93,4,0,7.2-.51,8.91,1.17,1.05,1,.36,1.75-1.34,2.09a8.33,8.33,0,0,1-6.43-1.48l-5.63,2.51a15.53,15.53,0,0,0,2.11,1.27,17.25,17.25,0,0,0,4,1.42,22.23,22.23,0,0,0,6.9.43l2.68,2.68,5.35-.94Z" fill="#e0e0e0"/><path d="M209.37,277.81l-2.05-2a4.65,4.65,0,0,0,3.86-2.68,1,1,0,0,1,.09-.3c.29-1.11-.2-2.41-1.7-3.87h0a12.57,12.57,0,0,0-5.42-3.06l-.51-.13h0l-.54-.12-.48-.09h-.56a26.88,26.88,0,0,0-3.1-.3h-4.34a28.48,28.48,0,0,1-4.33-.12,4.73,4.73,0,0,1-1.69-.55,3.5,3.5,0,0,1-.68-.52c-.81-.79-.66-1.61,1.56-2a7.63,7.63,0,0,1,6,1.11l5.35-2.41a19.67,19.67,0,0,0-12.21-2.81l-2.68-2.68-5.35,1,2.68,2.68c-2,.64-3.34,1.54-3.73,2.68h0c-.37,1.14.14,2.49,1.72,4,3.5,3.45,8,3.93,12.45,3.93,4,0,7.2-.51,8.91,1.17,1.05,1,.36,1.75-1.34,2.09a8.33,8.33,0,0,1-6.43-1.48l-5.63,2.51a15.53,15.53,0,0,0,2.11,1.27,17.25,17.25,0,0,0,4,1.42,22.23,22.23,0,0,0,6.9.43l2.68,2.68,5.35-.94Z" fill="#f0f0f0"/><path d="M181.09,265.43a12.81,12.81,0,0,0,4.71,2.79,19.84,19.84,0,0,0,5.56,1c1.88.12,3.8,0,5.71,0a18.36,18.36,0,0,1,2.87.17,4.41,4.41,0,0,1,2.5,1.17,4.43,4.43,0,0,0-2.53-1,18,18,0,0,0-2.84-.11,47.79,47.79,0,0,1-5.74,0,19.17,19.17,0,0,1-5.61-1,13.1,13.1,0,0,1-2.52-1.24A13.59,13.59,0,0,1,181.09,265.43Z" fill="#fff"/><polygon points="204.65 279.42 203.14 283.19 200.48 280.57 201.98 276.78 204.65 279.42" fill="#e0e0e0"/><polygon points="204.65 279.42 203.14 283.19 200.48 280.57 201.98 276.78 204.65 279.42" opacity="0.13" style="isolation:isolate"/><polygon points="210.05 278.48 204.83 279 201.98 276.78 204.65 279.42 210.05 278.48" fill="#fafafa"/><polygon points="188.48 257.69 185.68 255.47 180.44 256.09 185.81 255.07 188.48 257.69" fill="#fafafa"/><path d="M200.69,260.51a14.42,14.42,0,0,0-1.93-1.05l-.19,2Z" fill="#fff" opacity="0.15" style="isolation:isolate"/><path d="M181.22,265.54a12.61,12.61,0,0,0,5.21,3l1.12-11.76-1.74-1.7-3.67.7-.17,1.82,1.14,1.12c-.46.14-.9.3-1.34.48Z" fill="#fff" opacity="0.15" style="isolation:isolate"/><path d="M209,268.35a12.3,12.3,0,0,0-3-1.86l-1.23,12.86,3.19-.55.2-2.14-.91-.91a5,5,0,0,0,1-.22Z" fill="#fff" opacity="0.15" style="isolation:isolate"/><path d="M203.58,265.65l-.53-.12-.48-.1H202a28.85,28.85,0,0,0-3.09-.29h-.67l-.42,4.26c2,0,3.58.23,4.62,1.24s.37,1.76-1.33,2.09a8.29,8.29,0,0,1-3.54-.12l-.5,4.06a22.66,22.66,0,0,0,4.87.08l1,1,1.14-12-.48-.13Z" fill="#fff" opacity="0.15" style="isolation:isolate"/><path d="M134.28,356.08l1.92-2.83L142,357.2h0a10,10,0,0,1,1.87,1.68c.18.23.37.47.54.72a12.06,12.06,0,0,1,1.81,4.12,14,14,0,0,1,.32,1.69,14.15,14.15,0,0,1,.18,1.84v2.49a18.85,18.85,0,0,1-.28,2.76c-.1.69-.23,1.4-.38,2.13-2.21,10.48-9.51,22.05-18.4,29.17a18.13,18.13,0,0,1-1.83,1.34c-.9.65-1.79,1.24-2.68,1.77s-1.49.83-2.2,1.18-1.24.58-1.84.82-1.21.45-1.79.63h0a16.88,16.88,0,0,1-4.9.76h-1a10,10,0,0,1-3.75-1.05,9.12,9.12,0,0,1-1-.6h0l-5.48-3.73,1.75-2.6c-.08-.35-.16-.73-.23-1.11a22,22,0,0,1-.22-4.73,28.22,28.22,0,0,1,.32-3,36.86,36.86,0,0,1,.86-4A55.79,55.79,0,0,1,119.75,364c1.12-1,2.25-1.9,3.41-2.75s2-1.33,2.94-1.94a28.27,28.27,0,0,1,4.46-2.17A19.21,19.21,0,0,1,134.28,356.08Z" fill="#e0e0e0"/><path d="M132.69,399.12l-11.74-8,3.38-4,11.76,8A50.15,50.15,0,0,1,132.69,399.12Z" fill="#fff" opacity="0.15" style="isolation:isolate"/><path d="M142,357.2h0a10,10,0,0,1,1.87,1.68c.18.23.37.47.54.72a12.06,12.06,0,0,1,1.81,4.12,3.18,3.18,0,0,0,.14.61l-12.06-8.24h0l1.92-2.82Z" opacity="0.05" style="isolation:isolate"/><path d="M126.8,367.85l1-2.56,17.58,12c-.25.86-.53,1.73-.84,2.6Z" fill="#fff" opacity="0.15" style="isolation:isolate"/><path d="M141.7,386.37,126.45,376l3.24-4,14.22,9.68A48.56,48.56,0,0,1,141.7,386.37Z" fill="#fff" opacity="0.15" style="isolation:isolate"/><path d="M101.19,404.93l1.76-2.6c-.08-.35-.16-.72-.23-1.11a22.67,22.67,0,0,1-.23-4.73c.06-1,.17-2,.33-3a36.65,36.65,0,0,1,.85-4,30.54,30.54,0,0,1,1.34-3.86l24.51,16.71c-.61.54-1.2,1-1.81,1.53s-1.22.95-1.84,1.34c-.89.64-1.78,1.23-2.67,1.76s-1.49.83-2.2,1.18-1.25.58-1.85.82-1.2.45-1.78.63h0a16.65,16.65,0,0,1-4.9.76h-1a10,10,0,0,1-3.75-1,9.26,9.26,0,0,1-1-.6h0Z" fill="#fff" opacity="0.15" style="isolation:isolate"/><path d="M112.39,410.35h-1a10,10,0,0,1-3.75-1,9.26,9.26,0,0,1-1-.6h0L101.19,405l1.76-2.6h0l.91-.65L116,410A15.33,15.33,0,0,1,112.39,410.35Z" fill="#fff" opacity="0.15" style="isolation:isolate"/><path d="M119.89,355.05c-1,.59-2,1.24-3,1.94a42.68,42.68,0,0,0-3.4,2.76,55.68,55.68,0,0,0-16.07,25.44,34.18,34.18,0,0,0-.85,4,25.68,25.68,0,0,0-.33,3,21.3,21.3,0,0,0,.23,4.72,13.69,13.69,0,0,0,1.42,4.33,9.4,9.4,0,0,0,4,4,10.18,10.18,0,0,0,3.75,1h1a16.87,16.87,0,0,0,4.89-.76h0c.59-.19,1.18-.39,1.78-.63s1.22-.51,1.85-.82,1.46-.75,2.19-1.19,1.81-1.13,2.68-1.76c.63-.44,1.23-.91,1.85-1.34,8.89-7.12,16.19-18.74,18.4-29.19.15-.71.27-1.42.37-2.11.14-.94.23-1.87.29-2.78a20.64,20.64,0,0,0,0-2.49,13.51,13.51,0,0,0-.18-1.83,16.55,16.55,0,0,0-.32-1.68,12.53,12.53,0,0,0-1.82-4.13,7.38,7.38,0,0,0-.54-.71,9.09,9.09,0,0,0-2.94-2.32,11.26,11.26,0,0,0-6-1,18.71,18.71,0,0,0-4.88,1.18A29.36,29.36,0,0,0,119.89,355.05Z" fill="#f0f0f0"/><path d="M123.77,398.39c-.59.54-1.2,1.05-1.81,1.54a16.22,16.22,0,0,1-1.84,1.34c-.89.63-1.78,1.22-2.68,1.76s-1.47.84-2.2,1.19-1.24.58-1.85.82-1.19.44-1.78.63h0a16.85,16.85,0,0,1-4.88.76h-1a10.23,10.23,0,0,1-3.75-1,9.45,9.45,0,0,1-4-4A13.88,13.88,0,0,1,96.53,397a21.39,21.39,0,0,1-.22-4.73,18.56,18.56,0,0,1,.26-2.67Z" fill="#fff" opacity="0.15" style="isolation:isolate"/><path d="M110.29,406.07a16,16,0,0,1-3.58.41h-1a10.18,10.18,0,0,1-3.75-1,9.18,9.18,0,0,1-3.5-3.16Z" fill="#fff" opacity="0.15" style="isolation:isolate"/><path d="M130.39,391.27c-1.07,1.34-2.21,2.68-3.39,4l-29.62-9.6a.69.69,0,0,1,.11-.45,43.53,43.53,0,0,1,1.33-4.15Z" fill="#fff" opacity="0.15" style="isolation:isolate"/><path d="M138.22,377.71a44.5,44.5,0,0,1-2.2,4.79l-32.6-10.58c1-1.54,2-3.05,3.09-4.5Z" fill="#fff" opacity="0.15" style="isolation:isolate"/><path d="M139.69,373.43q-.37,1.35-.84,2.61L107.68,366c.63-.78,1.25-1.53,1.92-2.27Z" fill="#fff" opacity="0.15" style="isolation:isolate"/><path d="M121.4,354.22h0l1.22-.61.42-.18.4-.18.91-.36a18.54,18.54,0,0,1,4.87-1.18,11.26,11.26,0,0,1,6,1,9.12,9.12,0,0,1,2.95,2.32c.18.23.37.47.53.71a12.33,12.33,0,0,1,1.82,4.13,2.33,2.33,0,0,0,.14.61Z" fill="#e0e0e0" opacity="0.3" style="isolation:isolate"/><path d="M119.5,361.22c-8.82,5.25-16.39,16.9-17.41,26.54,0,.42-.08.83-.09,1.23-.47,9.86,6.61,13.39,15.81,7.93s17.05-17.9,17.56-27.77V368C135.21,359,128.32,356,119.5,361.22Z" fill="#e0e0e0"/><path d="M119.46,362l-.84.54c-8,5.23-14.85,15.92-15.79,24.84v1.16a13.87,13.87,0,0,0,.55,4.88,6.89,6.89,0,0,0,6.69,5.15,13.59,13.59,0,0,0,6.48-1.7c.46-.23.9-.48,1.34-.75s.85-.52,1.26-.8a30.19,30.19,0,0,0,2.56-1.94A39.42,39.42,0,0,0,134,373.89a27.41,27.41,0,0,0,.53-3c0-.47.08-.92.11-1.34s0-.76,0-1.12v-.3a10.37,10.37,0,0,0-1.73-5.82c-1.77-2.45-4.77-3.37-8.44-2.45A17.86,17.86,0,0,0,119.46,362Z" fill="#e0e0e0"/><path d="M119.46,362l-.84.54c-8,5.23-14.85,15.92-15.79,24.84v1.16a13.87,13.87,0,0,0,.55,4.88,6.89,6.89,0,0,0,6.69,5.15,13.59,13.59,0,0,0,6.48-1.7c.46-.23.9-.48,1.34-.75s.85-.52,1.26-.8a30.19,30.19,0,0,0,2.56-1.94A39.42,39.42,0,0,0,134,373.89a27.41,27.41,0,0,0,.53-3c0-.47.08-.92.11-1.34s0-.76,0-1.12v-.3a10.37,10.37,0,0,0-1.73-5.82c-1.77-2.45-4.77-3.37-8.44-2.45A17.86,17.86,0,0,0,119.46,362Z" opacity="0.13" style="isolation:isolate"/><path d="M120.77,364l.86-.54a18.35,18.35,0,0,1,5-2.12,9,9,0,0,1,5.61.23,4.82,4.82,0,0,1,.65.77,10.29,10.29,0,0,1,1.73,5.82v1.42a5.72,5.72,0,0,1-.11,1.34,27.41,27.41,0,0,1-.53,3,39.35,39.35,0,0,1-12.27,19.46,31.72,31.72,0,0,1-2.55,1.94c-.42.28-.85.55-1.26.8s-.91.52-1.34.75a13.65,13.65,0,0,1-6.48,1.7,7.25,7.25,0,0,1-2.68-.55,7.67,7.67,0,0,1-1.82-3.13A13.7,13.7,0,0,1,105,390v-1.16C105.91,379.94,112.71,369.24,120.77,364Z" fill="#e0e0e0"/><path d="M138.7,355.72c4.5,7.35,1.52,17.27-1.86,24.73-5.45,11.1-14.19,21.28-25.28,25.16h0a13,13,0,0,1-9.58-.2,13,13,0,0,0,9.66.42h0c9.17-3,16.71-10.6,22.18-19.11C139.06,378,144.45,365.24,138.7,355.72Z" fill="#f5f5f5"/><path d="M116.19,392.93a13.37,13.37,0,0,0,5.36-8.44l.23,1.18,3,2a15.84,15.84,0,0,0,1.55-1.62,15.24,15.24,0,0,0,2-3.16A19.58,19.58,0,0,0,130,377.1l2.75-1.74.22-4.82-3-2.07-.71.44-.14.1a3.06,3.06,0,0,0-.65-.54l-.25-.14c-.39-.21-2-1.43-2.68-1.89l-.24-.13c-.9-.47-2.12-.3-3.67.71h0A11,11,0,0,0,118,371.1a4.11,4.11,0,0,0-.21.42h0l-.2.44a2.76,2.76,0,0,0-.18.39v.16a1.66,1.66,0,0,0-.12.31,21.45,21.45,0,0,0-.84,2.61c-.11.39-.2.78-.3,1.16l-.32-1.54-3.05-2a17.28,17.28,0,0,0-4.77,10l-2.76,1.8-.16,4.83,3,2,.87-.56a2.17,2.17,0,0,0,.51.45h0c.49.29,2.43,1.68,2.95,2h0C113.3,394.19,114.56,394,116.19,392.93Z" fill="#e0e0e0"/><path d="M125.67,366.54c.77.51,2.23,1.59,2.59,1.78l.25.15a3.06,3.06,0,0,1,.65.54l-2,1.34A4.17,4.17,0,0,0,125.67,366.54Z" opacity="0.1" style="isolation:isolate"/><path d="M113.15,384.74c-.83.53-1.5.25-1.44-1.75a6.75,6.75,0,0,1,2.09-4.91l-1.06-5,3,2,.33,1.52v.12c-.15.61-.28,1.21-.4,1.79a3.72,3.72,0,0,1-.13.68,23.72,23.72,0,0,1-.94,3.71,4.43,4.43,0,0,1-.79,1.34A3.83,3.83,0,0,1,113.15,384.74Z" opacity="0.2" style="isolation:isolate"/><path d="M108.88,391.15l-.86.56-3-2,2.76-1.8A6,6,0,0,0,108.88,391.15Z" opacity="0.13" style="isolation:isolate"/><path d="M129.78,373.29l.23-4.84,3,2-.22,4.89L130,377.1a19.47,19.47,0,0,1-1.69,5.87,15,15,0,0,1-2,3.1,14.82,14.82,0,0,1-1.5,1.57l-3-2a15.17,15.17,0,0,0,1.49-1.51,16,16,0,0,0,2-3.16,20.08,20.08,0,0,0,1.7-5.87Z" opacity="0.1" style="isolation:isolate"/><path d="M130,377.1a14.65,14.65,0,0,1-1,4.89,12.46,12.46,0,0,1-2.68,4.14,23.56,23.56,0,0,0,2.25-4.31c.31-.75.56-1.53.8-2.32S129.78,377.91,130,377.1Z" opacity="0.13" style="isolation:isolate"/><path d="M112.39,393.64h0c-.54-.33-2.48-1.73-3-2,.91.55,2.17.36,3.82-.69,3.64-2.39,4.94-6.23,5.77-10,.76-3.5,1-6.3,2.68-7.45,1.11-.71,1.58,0,1.54,1.59a7.47,7.47,0,0,1-2.49,5.27l.84,4.15h0c-.87,3.25-2.26,6.4-5.36,8.43C114.56,394,113.3,394.19,112.39,393.64Z" opacity="0.13" style="isolation:isolate"/><polygon points="116.75 380.14 113.8 378.12 112.74 373.08 115.7 375.11 116.75 380.14" fill="#e0e0e0"/><polygon points="116.75 380.14 113.8 378.12 112.74 373.08 115.7 375.11 116.75 380.14" opacity="0.1" style="isolation:isolate"/><polygon points="105.05 389.69 107.82 387.88 108.89 391.15 108.02 391.71 105.05 389.69" fill="#e0e0e0"/><polygon points="105.05 389.69 107.82 387.88 108.89 391.15 108.02 391.71 105.05 389.69" opacity="0.2" style="isolation:isolate"/><path d="M129.3,368.91l-2.14,1.34a4.15,4.15,0,0,0-1.62-3.86l-.24-.13c-.9-.47-2.12-.3-3.67.71h0A10.9,10.9,0,0,0,118,371.1a4.11,4.11,0,0,0-.21.42h0l-.2.44a2.76,2.76,0,0,0-.18.39v.16a1.66,1.66,0,0,0-.12.31,21.45,21.45,0,0,0-.84,2.61,12.62,12.62,0,0,0-.32,1.34c-.1.49-.27,1.2-.39,1.78a3.56,3.56,0,0,1-.14.68,22.63,22.63,0,0,1-.93,3.71,4.31,4.31,0,0,1-.79,1.34,4.63,4.63,0,0,1-.58.5c-.84.53-1.51.25-1.46-1.75a6.71,6.71,0,0,1,2.09-4.91l-1.06-5a17.28,17.28,0,0,0-4.77,10l-2.75,1.8-.16,4.83,2.77-1.81a4.73,4.73,0,0,0,1.58,3.72h0c.91.55,2.17.37,3.81-.7,3.65-2.36,4.94-6.22,5.78-10,.76-3.5.93-6.29,2.67-7.45,1.1-.71,1.57,0,1.53,1.61a7.4,7.4,0,0,1-2.49,5.25l1.07,5.36a14.44,14.44,0,0,0,1.45-1.58,15.67,15.67,0,0,0,2-3.16,20.08,20.08,0,0,0,1.7-5.87l2.77-1.79.23-4.82Z" fill="#e0e0e0"/><path d="M129.3,368.91l-2.14,1.34a4.15,4.15,0,0,0-1.62-3.86l-.24-.13c-.9-.47-2.12-.3-3.67.71h0A10.9,10.9,0,0,0,118,371.1a4.11,4.11,0,0,0-.21.42h0l-.2.44a2.76,2.76,0,0,0-.18.39v.16a1.66,1.66,0,0,0-.12.31,21.45,21.45,0,0,0-.84,2.61,12.62,12.62,0,0,0-.32,1.34c-.1.49-.27,1.2-.39,1.78a3.56,3.56,0,0,1-.14.68,22.63,22.63,0,0,1-.93,3.71,4.31,4.31,0,0,1-.79,1.34,4.63,4.63,0,0,1-.58.5c-.84.53-1.51.25-1.46-1.75a6.71,6.71,0,0,1,2.09-4.91l-1.06-5a17.28,17.28,0,0,0-4.77,10l-2.75,1.8-.16,4.83,2.77-1.81a4.73,4.73,0,0,0,1.58,3.72h0c.91.55,2.17.37,3.81-.7,3.65-2.36,4.94-6.22,5.78-10,.76-3.5.93-6.29,2.67-7.45,1.1-.71,1.57,0,1.53,1.61a7.4,7.4,0,0,1-2.49,5.25l1.07,5.36a14.44,14.44,0,0,0,1.45-1.58,15.67,15.67,0,0,0,2-3.16,20.08,20.08,0,0,0,1.7-5.87l2.77-1.79.23-4.82Z" fill="#f0f0f0"/><path d="M113.23,390.91a11.4,11.4,0,0,0,3.31-3.5,17.71,17.71,0,0,0,1.89-4.59c.47-1.62.75-3.28,1.1-4.93a17.49,17.49,0,0,1,.69-2.45,4.14,4.14,0,0,1,1.5-1.93,4,4,0,0,0-1.34,2,16.54,16.54,0,0,0-.63,2.42c-.32,1.66-.6,3.33-1,5a16.9,16.9,0,0,1-2.08,4.6,11.45,11.45,0,0,1-1.54,1.93A11.08,11.08,0,0,1,113.23,390.91Z" fill="#fff"/><polygon points="129.78 373.29 132.76 375.31 129.97 377.1 127.01 375.08 129.78 373.29" fill="#e0e0e0"/><polygon points="129.78 373.29 132.76 375.31 129.97 377.1 127.01 375.08 129.78 373.29" opacity="0.13" style="isolation:isolate"/><polygon points="130.01 368.46 129.46 373.05 127.01 375.08 129.78 373.29 130.01 368.46" fill="#fafafa"/><polygon points="107.97 383.06 105.52 385.06 105.05 389.69 105.21 384.86 107.97 383.06" fill="#fafafa"/><path d="M112.74,373.09a15.23,15.23,0,0,0-1.34,1.44l1.69.55Z" fill="#fff" opacity="0.15" style="isolation:isolate"/><path d="M113.35,390.83a11.25,11.25,0,0,0,3.58-3.93L107,383.69l-1.8,1.17-.11,3.29,1.54.5,1.18-.77a6.16,6.16,0,0,0,.18,1.21Z" fill="#fff" opacity="0.15" style="isolation:isolate"/><path d="M121.09,367.39a11.31,11.31,0,0,0-2.17,2.2l10.88,3.52.13-2.85-1.81-.58-1,.62a4.71,4.71,0,0,0,0-.92Z" fill="#fff" opacity="0.15" style="isolation:isolate"/><path d="M117.72,371.57l-.2.44c-.07.14-.12.26-.18.39v.16a1.66,1.66,0,0,0-.12.31,24,24,0,0,0-.84,2.61,2.07,2.07,0,0,1-.15.58l3.59,1.16a5.62,5.62,0,0,1,2-3.73c1.1-.71,1.57,0,1.53,1.6a7.25,7.25,0,0,1-.79,3l3.55,1.15a22.32,22.32,0,0,0,1-4.18l1-.67L118,371.13l-.2.39Z" fill="#fff" opacity="0.15" style="isolation:isolate"/><path d="M818.23,585.11l4.93.44-.95,10.1h0a13.87,13.87,0,0,1-.84,3.53c-.16.4-.33.79-.52,1.18a17.76,17.76,0,0,1-4,5.18,22.46,22.46,0,0,1-1.91,1.6c-.71.53-1.44,1-2.21,1.5a33.36,33.36,0,0,1-3.16,1.74,39.58,39.58,0,0,1-3.64,1.63c-1,.36-1.94.71-3,1-14.83,4.54-34.59,3.39-49.84-2.9-1-.42-2.06-.87-3-1.33-1.42-.67-2.8-1.41-4.11-2.17-1.07-.65-2.09-1.34-3-2a28.17,28.17,0,0,1-2.33-1.76,26.07,26.07,0,0,1-2-1.82h0a23.69,23.69,0,0,1-4.39-5.66c-.23-.42-.43-.83-.62-1.26a14.81,14.81,0,0,1-1.34-5.48,16.11,16.11,0,0,1,.07-1.7h0l.9-9.55,4.51.42a15.89,15.89,0,0,1,1.25-1.06,30.84,30.84,0,0,1,5.82-3.6,39.77,39.77,0,0,1,4.09-1.73,53.49,53.49,0,0,1,5.7-1.73A80.5,80.5,0,0,1,798,572.25a60.47,60.47,0,0,1,5.87,2.39A49.38,49.38,0,0,1,808.4,577a41.18,41.18,0,0,1,5.86,4.12A28.64,28.64,0,0,1,818.23,585.11Z" fill="#e0e0e0"/><path d="M762.59,613.19l1.93-20.49,7.42,1.5L770,614.69C767.5,614.31,765,613.81,762.59,613.19Z" fill="#fff" opacity="0.15" style="isolation:isolate"/><path d="M822.21,595.65h0a13.87,13.87,0,0,1-.84,3.53c-.16.4-.33.79-.52,1.18a17.76,17.76,0,0,1-4,5.18l-.69.6,2-21.07h0l4.93.44Z" opacity="0.05" style="isolation:isolate"/><path d="M798.09,583.89l3.93-.55L799.09,614c-1.27.3-2.56.54-3.87.75Z" fill="#fff" opacity="0.15" style="isolation:isolate"/><path d="M785.05,615.69l2.5-26.61,7.44,1.28-2.33,24.77A71.74,71.74,0,0,1,785.05,615.69Z" fill="#fff" opacity="0.15" style="isolation:isolate"/><path d="M733.21,577.37l4.51.41c.4-.37.81-.72,1.25-1.06a30.84,30.84,0,0,1,5.82-3.6,39.77,39.77,0,0,1,4.09-1.73,51.23,51.23,0,0,1,5.7-1.72,57.74,57.74,0,0,1,5.77-1.1l-4,42.73c-1.08-.38-2.15-.79-3.2-1.22s-2.06-.87-3-1.34c-1.42-.67-2.8-1.4-4.11-2.17-1.07-.64-2.09-1.34-3-2s-1.59-1.16-2.33-1.75-1.41-1.21-2-1.82h0a23.94,23.94,0,0,1-4.39-5.67c-.22-.41-.43-.83-.61-1.25a14.52,14.52,0,0,1-1.34-5.48,16,16,0,0,1,.06-1.7h0Z" fill="#fff" opacity="0.15" style="isolation:isolate"/><path d="M734.17,595.35c-.22-.41-.43-.83-.61-1.26a14.43,14.43,0,0,1-1.34-5.47,16.29,16.29,0,0,1,.06-1.71h0l.9-9.54,4.51.41h0l1.48.7-2,21.22A21.72,21.72,0,0,1,734.17,595.35Z" fill="#fff" opacity="0.15" style="isolation:isolate"/><path d="M809.46,566.15q-2.16-1.27-4.52-2.37a62.4,62.4,0,0,0-5.86-2.39,80.5,80.5,0,0,0-43.48-2.52,56.81,56.81,0,0,0-5.71,1.72,36.08,36.08,0,0,0-4,1.73,32.33,32.33,0,0,0-5.83,3.6,20.13,20.13,0,0,0-4.48,4.82,13.52,13.52,0,0,0-2.32,8,14.72,14.72,0,0,0,1.34,5.49c.19.41.4.83.63,1.24a23.24,23.24,0,0,0,4.39,5.67h0c.63.61,1.34,1.21,2,1.82s1.5,1.18,2.32,1.75,2,1.34,3,2c1.34.76,2.68,1.5,4.12,2.17,1,.48,2,.92,3,1.34,15.25,6.28,35,7.43,49.84,2.89,1-.31,2-.64,3-1a36.89,36.89,0,0,0,3.69-1.6,31.26,31.26,0,0,0,3.16-1.74,25.09,25.09,0,0,0,2.2-1.5,20.51,20.51,0,0,0,1.9-1.59,17.76,17.76,0,0,0,4-5.17,12.6,12.6,0,0,0,.52-1.19,13.26,13.26,0,0,0,.88-5.36,16,16,0,0,0-3-8.27,26.82,26.82,0,0,0-4.9-5.36A41.08,41.08,0,0,0,809.46,566.15Z" fill="#f0f0f0"/><path d="M757.29,601.4c-1.1-.38-2.17-.79-3.23-1.23s-2-.87-3-1.34a36.49,36.49,0,0,1-4.11-2.17c-1.09-.64-2.11-1.3-3.06-2s-1.59-1.17-2.31-1.76-1.34-1.2-2-1.82h0a23.44,23.44,0,0,1-4.39-5.66c-.23-.42-.44-.83-.63-1.25a14.72,14.72,0,0,1-1.34-5.49,13.54,13.54,0,0,1,2.32-8,20.34,20.34,0,0,1,4.48-4.82,32.68,32.68,0,0,1,5.83-3.6c1.16-.56,2.37-1.07,3.61-1.54Z" fill="#fff" opacity="0.15" style="isolation:isolate"/><path d="M738.14,589.69a21.9,21.9,0,0,1-3-4.25c-.23-.41-.44-.83-.63-1.24a14.72,14.72,0,0,1-1.34-5.49,13.51,13.51,0,0,1,1.54-6.63Z" fill="#fff" opacity="0.15" style="isolation:isolate"/><path d="M770.93,604.79c-2.5-.39-5-.9-7.42-1.51L755,559.09l.63-.16c2-.48,4.1-.87,6.23-1.17Z" fill="#fff" opacity="0.15" style="isolation:isolate"/><path d="M793.6,605.22a71.93,71.93,0,0,1-7.62.56l-9.37-48.69c2.68.14,5.26.39,7.87.77Z" fill="#fff" opacity="0.15" style="isolation:isolate"/><path d="M800,604.08c-1.34.3-2.57.55-3.9.78l-9-46.56c1.42.24,2.83.52,4.22.86Z" fill="#fff" opacity="0.15" style="isolation:isolate"/><path d="M811.59,567.48h0l1.6,1.13.53.39.5.4c.38.29.75.59,1.1.88a26.82,26.82,0,0,1,4.9,5.36,16.07,16.07,0,0,1,3,8.28,13.21,13.21,0,0,1-.88,5.35,11.56,11.56,0,0,1-.52,1.19,17.76,17.76,0,0,1-4,5.17l-.67.61Z" fill="#e0e0e0" opacity="0.3" style="isolation:isolate"/><path d="M801.38,570c-12.83-7.5-32.87-9-45.81-3.49-.55.24-1.08.49-1.61.74-12.81,6.31-12.36,17.77,1,25.59s34.61,9,47.43,2.75c.52-.26,1-.53,1.5-.81C815.16,588.32,814.21,577.47,801.38,570Z" fill="#e0e0e0"/><path d="M800.35,570.5c-.41-.24-.83-.48-1.27-.71-12.28-6.55-30.56-7.66-42.5-2.61l-.33.13-1.21.51a20.25,20.25,0,0,0-5.8,4.11A10,10,0,0,0,747.4,584a20.2,20.2,0,0,0,6.7,7c.59.41,1.23.82,1.9,1.2s1.23.7,1.89,1a43.28,43.28,0,0,0,4.24,1.87A56.89,56.89,0,0,0,795.37,597a34.75,34.75,0,0,0,4.12-1.34c.63-.26,1.24-.54,1.83-.82l1.43-.76.37-.23a15.06,15.06,0,0,0,6.18-6.27c1.84-4,.91-8.36-2.8-12.38A26.45,26.45,0,0,0,800.35,570.5Z" fill="#e0e0e0"/><path d="M800.35,570.5c-.41-.24-.83-.48-1.27-.71-12.28-6.55-30.56-7.66-42.5-2.61l-.33.13-1.21.51a20.25,20.25,0,0,0-5.8,4.11A10,10,0,0,0,747.4,584a20.2,20.2,0,0,0,6.7,7c.59.41,1.23.82,1.9,1.2s1.23.7,1.89,1a43.28,43.28,0,0,0,4.24,1.87A56.89,56.89,0,0,0,795.37,597a34.75,34.75,0,0,0,4.12-1.34c.63-.26,1.24-.54,1.83-.82l1.43-.76.37-.23a15.06,15.06,0,0,0,6.18-6.27c1.84-4,.91-8.36-2.8-12.38A26.45,26.45,0,0,0,800.35,570.5Z" opacity="0.13" style="isolation:isolate"/><path d="M798.74,573.54l1.28.71a26.71,26.71,0,0,1,6.14,4.8,12.92,12.92,0,0,1,3.66,7.28,10.72,10.72,0,0,1-.51,1.33,15.1,15.1,0,0,1-6.17,6.27l-.38.23-1.43.76c-.59.28-1.19.57-1.82.82a35.51,35.51,0,0,1-4.13,1.34,56.85,56.85,0,0,1-33.23-1.93,43.46,43.46,0,0,1-4.25-1.87,20.82,20.82,0,0,1-1.89-1c-.55-.36-1.34-.79-1.9-1.2a20.08,20.08,0,0,1-6.69-7,10.84,10.84,0,0,1-1.21-3.84,11.28,11.28,0,0,1,2.68-4.51,20.24,20.24,0,0,1,5.81-4.11l1.22-.57.32-.13C768.17,565.88,786.46,567,798.74,573.54Z" fill="#e0e0e0"/><path d="M821.78,590.46c-6.16,10.82-20.81,14-32.62,14.92-17.88.87-36.88-3.08-49.55-14.41h0c-3.43-3.28-6.23-7.47-6.44-12.28.12,4.85,2.8,9.19,6.23,12.54h0c10.17,9.56,25.1,13.76,39.7,14.73C793.87,606.48,813.76,604.39,821.78,590.46Z" fill="#f5f5f5"/><path d="M758.89,588c4.8,2.55,9.76,2.11,14.46.93L772,590l-.49,5.19a21.59,21.59,0,0,0,8.39,1.1,29,29,0,0,0,8.61-2l4.21,2.26,6.29-3.09.48-5.17-1.06-.59-.24-.12a4.74,4.74,0,0,0,.24-1.19,2.94,2.94,0,0,0,0-.42c0-.64.4-3.54.48-4.76v-.42c0-1.46-1.12-2.86-3.48-4.12h0a15.9,15.9,0,0,0-7.74-1.78h-2.33l-.47.06a37.25,37.25,0,0,0-3.9.75c-.56.14-1.12.3-1.67.46l1.71-1.49.5-5.17a25.09,25.09,0,0,0-16,.95l-4.22-2.25-6.21,3.19-.5,5.17,1.34.71a3.54,3.54,0,0,0-.23,1h0c0,.81-.43,4.22-.48,5.13h0C755.28,585.23,756.37,586.65,758.89,588Z" fill="#e0e0e0"/><path d="M799,581.52c-.12,1.34-.47,3.92-.47,4.52v.42a4.74,4.74,0,0,1-.24,1.19l-3-1.62A6,6,0,0,0,799,581.52Z" opacity="0.1" style="isolation:isolate"/><path d="M767.09,578.41c-1.27-.67-1.34-1.71,1.18-3a9.81,9.81,0,0,1,7.68-.79l5.64-4.86-.5,5.17-1.7,1.48h-.17l-2.53.75-1,.31a33,33,0,0,1-5.36,1.41,6.13,6.13,0,0,1-2.26,0A3.85,3.85,0,0,1,767.09,578.41Z" opacity="0.2" style="isolation:isolate"/><path d="M756,577.46l-1.34-.7.5-5.16,4.2,2.25A8.55,8.55,0,0,0,756,577.46Z" opacity="0.13" style="isolation:isolate"/><path d="M793.29,591.44l6.27-3.09-.48,5.18-6.28,3.09-4.21-2.26a29,29,0,0,1-8.62,2,22.4,22.4,0,0,1-5.36-.31,24.38,24.38,0,0,1-3-.79l.48-5.19a20,20,0,0,0,3,.81,22.37,22.37,0,0,0,5.36.29,28.05,28.05,0,0,0,8.62-2Z" opacity="0.1" style="isolation:isolate"/><path d="M788.59,594.36a21.5,21.5,0,0,1-6.92,2.09,17.79,17.79,0,0,1-7.08-.44,34.53,34.53,0,0,0,7-.15c1.17-.15,2.33-.36,3.5-.62S787.43,594.68,788.59,594.36Z" opacity="0.13" style="isolation:isolate"/><path d="M755.34,583.65h0c0-.91.46-4.33.49-5.14,0,1.52,1,3,3.54,4.32,5.56,3,11.35,1.92,16.69.34,5-1.49,8.64-3.22,11.33-1.79,1.69.92,1.07,2-.95,3.07a10.72,10.72,0,0,1-8.4.51l-4.67,4h0c-4.72,1.19-9.67,1.6-14.45-.94C756.37,586.65,755.29,585.23,755.34,583.65Z" opacity="0.13" style="isolation:isolate"/><polygon points="775.48 579.75 775.98 574.57 781.62 569.71 781.13 574.88 775.48 579.75" fill="#e0e0e0"/><polygon points="775.48 579.75 775.98 574.57 781.62 569.71 781.13 574.88 775.48 579.75" opacity="0.1" style="isolation:isolate"/><polygon points="755.22 571.6 759.43 573.85 756.05 577.47 754.73 576.76 755.22 571.6" fill="#e0e0e0"/><polygon points="755.22 571.6 759.43 573.85 756.05 577.47 754.73 576.76 755.22 571.6" opacity="0.2" style="isolation:isolate"/><path d="M798.5,587.77,795.21,586a6,6,0,0,0,3.75-4.75v-.42c0-1.46-1.13-2.86-3.48-4.12h0a15.9,15.9,0,0,0-7.74-1.78h-2.33l-.47.06a36.75,36.75,0,0,0-3.9.75c-.61.15-1.22.33-1.82.5l-2.54.76-1,.3a34,34,0,0,1-5.35,1.4,5.68,5.68,0,0,1-2.25,0,4,4,0,0,1-1-.39c-1.27-.68-1.33-1.72,1.2-3.05a9.57,9.57,0,0,1,7.67-.8l5.64-4.86a25,25,0,0,0-16,1l-4.21-2.25-6.22,3.19,4.22,2.24c-2.26,1.53-3.52,3.1-3.61,4.6h0c0,1.52,1.05,3,3.56,4.32,5.54,3,11.33,1.92,16.67.34,5-1.49,8.64-3.22,11.33-1.77,1.67.9,1.07,2-1,3a10.71,10.71,0,0,1-8.38.53l-6,5.08a21.28,21.28,0,0,0,3,.81,22.4,22.4,0,0,0,5.36.31,28.68,28.68,0,0,0,8.61-2l4.22,2.26,6.26-3.08Z" fill="#e0e0e0"/><path d="M798.5,587.77,795.21,586a6,6,0,0,0,3.75-4.75v-.42c0-1.46-1.13-2.86-3.48-4.12h0a15.9,15.9,0,0,0-7.74-1.78h-2.33l-.47.06a36.75,36.75,0,0,0-3.9.75c-.61.15-1.22.33-1.82.5l-2.54.76-1,.3a34,34,0,0,1-5.35,1.4,5.68,5.68,0,0,1-2.25,0,4,4,0,0,1-1-.39c-1.27-.68-1.33-1.72,1.2-3.05a9.57,9.57,0,0,1,7.67-.8l5.64-4.86a25,25,0,0,0-16,1l-4.21-2.25-6.22,3.19,4.22,2.24c-2.26,1.53-3.52,3.1-3.61,4.6h0c0,1.52,1.05,3,3.56,4.32,5.54,3,11.33,1.92,16.67.34,5-1.49,8.64-3.22,11.33-1.77,1.67.9,1.07,2-1,3a10.71,10.71,0,0,1-8.38.53l-6,5.08a21.28,21.28,0,0,0,3,.81,22.4,22.4,0,0,0,5.36.31,28.68,28.68,0,0,0,8.61-2l4.22,2.26,6.26-3.08Z" fill="#f0f0f0"/><path d="M759.39,582.8a16.55,16.55,0,0,0,6.76,1.73,25.78,25.78,0,0,0,7.16-.82c2.37-.54,4.68-1.33,7-2.06a25.62,25.62,0,0,1,3.59-.83,5.82,5.82,0,0,1,3.48.55,5.82,5.82,0,0,0-3.47-.39,23.62,23.62,0,0,0-3.52.91c-2.32.77-4.63,1.57-7,2.13a25,25,0,0,1-7.26.77,17.64,17.64,0,0,1-3.53-.62A15.35,15.35,0,0,1,759.39,582.8Z" fill="#fff"/><polygon points="793.29 591.44 792.8 596.62 788.58 594.36 789.08 589.18 793.29 591.44" fill="#e0e0e0"/><polygon points="793.29 591.44 792.8 596.62 788.58 594.36 789.08 589.18 793.29 591.44" opacity="0.13" style="isolation:isolate"/><polygon points="799.56 588.36 793.36 590.87 789.08 589.18 793.29 591.44 799.56 588.36" fill="#fafafa"/><polygon points="765.65 570.66 761.41 568.94 755.22 571.6 761.44 568.41 765.65 570.66" fill="#fafafa"/><path d="M781.62,569.71a20.68,20.68,0,0,0-2.68-.59l.49,2.52Z" fill="#fff" opacity="0.15" style="isolation:isolate"/><path d="M759.58,582.9a16.2,16.2,0,0,0,7.45,1.78l-2.85-14.81-2.68-1.46-4.24,2.17.45,2.3,1.8,1a11.43,11.43,0,0,0-1.34,1.07Z" fill="#fff" opacity="0.15" style="isolation:isolate"/><path d="M794.66,576.31a15.24,15.24,0,0,0-4.29-1.21l3.15,16.23,3.7-1.82-.52-2.68-1.49-.8a6.74,6.74,0,0,0,1.18-.64Z" fill="#fff" opacity="0.15" style="isolation:isolate"/><path d="M787,575h-1.58L785,575a34.4,34.4,0,0,0-3.9.75l-.83.23,1,5.36c2.45-.71,4.46-1,6.11-.14s1.07,2-1,3.06a10.32,10.32,0,0,1-4.36,1.12l1,5.29a30.42,30.42,0,0,0,6-1.66l1.58.86-2.91-15.09H787Z" fill="#fff" opacity="0.15" style="isolation:isolate"/><path d="M595.94,188.25l-3.7,2.68,5.6,7.56h0a12.25,12.25,0,0,0,2.36,2.41c.3.24.64.47,1,.7a17,17,0,0,0,5.64,2.21,22.23,22.23,0,0,0,2.28.35c.82.08,1.65.13,2.48.13a28.69,28.69,0,0,0,3.34-.13q1.86-.16,3.69-.51c.93-.18,1.88-.38,2.83-.62,14-3.51,29.13-13.91,38.24-26.22.61-.83,1.2-1.67,1.76-2.53.81-1.22,1.56-2.46,2.23-3.71.55-1,1-2,1.47-3s.71-1.7,1-2.52.54-1.63.75-2.42h0a22,22,0,0,0,.77-6.6,5.64,5.64,0,0,0-.11-1.34,13.46,13.46,0,0,0-1.59-5,10.92,10.92,0,0,0-.86-1.34h0l-5.36-7.15-3.39,2.49c-.48-.1-1-.18-1.49-.24a28.27,28.27,0,0,0-6.37,0,39.08,39.08,0,0,0-4,.57,49.39,49.39,0,0,0-5.36,1.34,74.86,74.86,0,0,0-33.34,22.86,58.19,58.19,0,0,0-3.52,4.71c-.89,1.34-1.72,2.68-2.46,4a39.73,39.73,0,0,0-2.67,6.09A26.47,26.47,0,0,0,595.94,188.25Z" fill="#e0e0e0"/><path d="M653.6,183.87l-11.36-15.35-5.18,4.76,11.37,15.37C650.25,187.12,652,185.52,653.6,183.87Z" fill="#fff" opacity="0.15" style="isolation:isolate"/><path d="M597.84,198.6h0A12.25,12.25,0,0,0,600.2,201c.3.24.64.47,1,.7a17.46,17.46,0,0,0,5.64,2.21l.83.14L596,188.2h0l-3.7,2.67Z" opacity="0.05" style="isolation:isolate"/><path d="M611.35,177.59,608,179.05,625,202c1.14-.38,2.29-.8,3.43-1.26Z" fill="#fff" opacity="0.15" style="isolation:isolate"/><path d="M637,196.63l-14.73-19.94-5.36,4.58,13.74,18.58Q633.89,198.4,637,196.63Z" fill="#fff" opacity="0.15" style="isolation:isolate"/><path d="M659.79,141.3l-3.39,2.49q-.72-.14-1.5-.24a28.18,28.18,0,0,0-6.36,0,38.91,38.91,0,0,0-4,.58,47.18,47.18,0,0,0-5.36,1.34c-1.7.53-3.4,1.17-5.11,1.88l23.7,32c.68-.81,1.34-1.66,2-2.5s1.2-1.67,1.77-2.53c.8-1.22,1.55-2.46,2.22-3.71.55-1,1-2,1.47-3s.71-1.7,1-2.52.53-1.63.75-2.42h0a21.68,21.68,0,0,0,.76-6.61,5.52,5.52,0,0,0-.11-1.33,13.51,13.51,0,0,0-1.59-5,11.26,11.26,0,0,0-.86-1.34h0Z" fill="#fff" opacity="0.15" style="isolation:isolate"/><path d="M667.65,156.06a5.64,5.64,0,0,0-.11-1.34,13.46,13.46,0,0,0-1.59-5,10.92,10.92,0,0,0-.86-1.34h0l-5.36-7.15-3.39,2.49h0l-.83,1.26,11.78,15.91A20.79,20.79,0,0,0,667.65,156.06Z" fill="#fff" opacity="0.15" style="isolation:isolate"/><path d="M591.13,175.07a25.37,25.37,0,0,0-1.34,6.62,14.8,14.8,0,0,0,1.62,8,12,12,0,0,0,3.27,3.79c.31.24.64.48,1,.7a16.32,16.32,0,0,0,5.63,2.21,25,25,0,0,0,4.74.49,31.17,31.17,0,0,0,3.35-.13c1.22-.11,2.45-.28,3.7-.51.94-.17,1.87-.39,2.84-.63,14-3.51,29.11-13.9,38.22-26.2.62-.85,1.21-1.69,1.76-2.55a42.38,42.38,0,0,0,2.23-3.71c.55-1,1-2,1.48-3s.71-1.69,1-2.52.53-1.63.73-2.42h0a21.67,21.67,0,0,0,.78-6.6,5.6,5.6,0,0,0-.11-1.34,13.51,13.51,0,0,0-1.59-5,12.68,12.68,0,0,0-5.67-5.22,18.78,18.78,0,0,0-5.87-1.66,29.4,29.4,0,0,0-6.36,0c-1.35.13-2.69.32-4,.58a47.18,47.18,0,0,0-5.36,1.34,74.48,74.48,0,0,0-33.34,22.86c-1.27,1.54-2.45,3.12-3.52,4.71-.9,1.34-1.71,2.68-2.45,4A38.19,38.19,0,0,0,591.13,175.07Z" fill="#f0f0f0"/><path d="M652.26,172c.68-.83,1.34-1.67,2-2.51s1.22-1.69,1.77-2.55c.8-1.2,1.54-2.44,2.22-3.71.55-1,1-2,1.49-3s.71-1.69,1-2.52.54-1.63.74-2.42h0a22,22,0,0,0,.77-6.6,6.14,6.14,0,0,0-.1-1.34,13.35,13.35,0,0,0-1.6-5,12.71,12.71,0,0,0-5.66-5.22,18.84,18.84,0,0,0-5.88-1.66,29.4,29.4,0,0,0-6.36,0c-1.19.11-2.4.28-3.62.5Z" fill="#fff" opacity="0.15" style="isolation:isolate"/><path d="M661.78,153.45a21.11,21.11,0,0,0,.38-4.82,5.6,5.6,0,0,0-.11-1.34,13.51,13.51,0,0,0-1.59-5,12.44,12.44,0,0,0-4.42-4.52Z" fill="#fff" opacity="0.15" style="isolation:isolate"/><path d="M643,181.19c1.81-1.51,3.52-3.1,5.16-4.75L633.7,137.18l-.58.17c-1.83.58-3.66,1.27-5.51,2.06Z" fill="#fff" opacity="0.15" style="isolation:isolate"/><path d="M625.17,192.41a68.05,68.05,0,0,0,6.32-3.2L615.61,146a66.68,66.68,0,0,0-5.89,4.39Z" fill="#fff" opacity="0.15" style="isolation:isolate"/><path d="M619.51,194.58c1.15-.37,2.31-.79,3.46-1.26L607.79,152c-1,.88-2,1.78-2.95,2.68Z" fill="#fff" opacity="0.15" style="isolation:isolate"/><path d="M592.76,171.06h0c-.26.56-.5,1.12-.73,1.67-.08.19-.16.36-.23.55s-.15.37-.21.56l-.46,1.23a25.37,25.37,0,0,0-1.34,6.62,14.8,14.8,0,0,0,1.62,8,12,12,0,0,0,3.27,3.79c.31.24.64.48,1,.7a16.32,16.32,0,0,0,5.63,2.21l.83.15Z" fill="#e0e0e0" opacity="0.3" style="isolation:isolate"/><path d="M602.06,168.14c6.6-12.12,21.85-22.89,34.75-24.75.53-.08,1.08-.13,1.63-.19,13.2-1.14,18.35,8.18,11.46,20.83S626.82,187.89,613.53,189c-.53,0-1,.08-1.58.09C599.93,189.33,595.47,180.27,602.06,168.14Z" fill="#e0e0e0"/><path d="M603.13,168.06c.21-.39.43-.79.67-1.18,6.61-11.1,20.61-20.76,32.53-22.47h.32l1.23-.14a18.75,18.75,0,0,1,6.59.49,9.27,9.27,0,0,1,7.27,8.75,18.59,18.59,0,0,1-2,8.79c-.27.61-.59,1.23-.92,1.86s-.66,1.16-1,1.73a39.27,39.27,0,0,1-2.48,3.53,52.66,52.66,0,0,1-25.44,17.49,33.55,33.55,0,0,1-3.95.87c-.61.09-1.22.16-1.82.21s-1,.08-1.51.09h-.42a14,14,0,0,1-7.9-2c-3.37-2.25-4.74-6.21-3.72-11.19A24.24,24.24,0,0,1,603.13,168.06Z" fill="#e0e0e0"/><path d="M603.13,168.06c.21-.39.43-.79.67-1.18,6.61-11.1,20.61-20.76,32.53-22.47h.32l1.23-.14a18.75,18.75,0,0,1,6.59.49,9.27,9.27,0,0,1,7.27,8.75,18.59,18.59,0,0,1-2,8.79c-.27.61-.59,1.23-.92,1.86s-.66,1.16-1,1.73a39.27,39.27,0,0,1-2.48,3.53,52.66,52.66,0,0,1-25.44,17.49,33.55,33.55,0,0,1-3.95.87c-.61.09-1.22.16-1.82.21s-1,.08-1.51.09h-.42a14,14,0,0,1-7.9-2c-3.37-2.25-4.74-6.21-3.72-11.19A24.24,24.24,0,0,1,603.13,168.06Z" opacity="0.13" style="isolation:isolate"/><path d="M605.87,169.7c-.24.39-.45.79-.67,1.18a24.8,24.8,0,0,0-2.58,6.7,12,12,0,0,0,.59,7.54,8.62,8.62,0,0,0,1.06.83,14,14,0,0,0,7.9,2h.41c.51,0,1,0,1.52-.08a11.58,11.58,0,0,0,1.82-.22,33.55,33.55,0,0,0,4-.87,52.75,52.75,0,0,0,25.44-17.49,41.41,41.41,0,0,0,2.48-3.53c.35-.56.68-1.14,1-1.73s.66-1.24.93-1.86a18.56,18.56,0,0,0,2-8.78,10,10,0,0,0-.88-3.65,10.58,10.58,0,0,0-4.31-2.29,18.75,18.75,0,0,0-6.59-.48l-1.23.14h-.32C626.48,149,612.49,158.62,605.87,169.7Z" fill="#e0e0e0"/><path d="M595.68,194.21c10.1,5.65,23.26,1.12,33.09-3.79,14.63-7.9,27.83-20.09,32.48-35.25h0c1.15-4.25,1.34-8.93-.78-12.85,2.24,3.91,2.18,8.64,1.07,13h0c-3.49,12.48-13.39,23-24.48,30.8C625.57,193.54,608.75,201.43,595.68,194.21Z" fill="#f5f5f5"/><polygon points="617.4 170.96 619.77 174.46 610 176.89 607.63 173.4 617.4 170.96" opacity="0.13" style="isolation:isolate"/><path d="M616,168.74c1.08,2,4.67,2.49,7.71,2.89l2,.24a3.75,3.75,0,0,0,.91-1c1.1-1.94-.91-2.19-5.29-2.68a30.93,30.93,0,0,1-4.38-.79c.44-1,.24-2.25-3.33-2.1Z" opacity="0.13" style="isolation:isolate"/><polygon points="638.8 147.47 641.19 150.97 638.96 154.88 636.59 151.38 638.8 147.47" opacity="0.2" style="isolation:isolate"/><path d="M624.53,159.67c.88-1.55,2.89-2.38,5.27-2.57,3.79-.29,4.17,1.53,3.69,2.92l.41.62a7.23,7.23,0,0,0-1.74,0,7.61,7.61,0,0,0-4.42,1.56C625.22,161.87,623.54,161.43,624.53,159.67Z" opacity="0.13" style="isolation:isolate"/><path d="M642.89,155.94a2.45,2.45,0,0,0,1.09.87,2.55,2.55,0,0,1-.16.69l2.37,3.5a4.18,4.18,0,0,0-.33-3.72h0l-2.37-3.5S642.14,154.77,642.89,155.94Z" opacity="0.13" style="isolation:isolate"/><path d="M621.34,168.14c4.38.51,6.39.76,5.29,2.67a3.94,3.94,0,0,1-.91,1c3,.4,4.19.84,3.28,2.45-.67,1.19-2.32,2.26-5.36,2.49s-4.4-.69-3.89-2.36L610,176.87v.26a5.79,5.79,0,0,0-1.44-.09l1.87,2.83a2.33,2.33,0,0,0,.17.26h0a5,5,0,0,0,2.4,1.62,13.7,13.7,0,0,0,4,.66h0l-4.55.36,2.37,3.5h0l3.08-.24,4.17-.32h0l2.23-3.93c6.53-1.14,11.87-4,14.5-8.7,1.19-2.1,1.27-3.58.66-4.62h0a1.51,1.51,0,0,0-.18-.26l-2-2.88a2.36,2.36,0,0,0-.53,1.34,19.5,19.5,0,0,0-3-.67c-4.08-.57-8.11-.4-6.69-2.9a4,4,0,0,1,.83-1c-2.52-.29-4.21-.73-3.22-2.49.89-1.55,2.89-2.38,5.28-2.57,3.79-.29,4.16,1.53,3.68,2.92h0l.42.62,2,2.88,10.27-2.52-2.37-3.5a6.1,6.1,0,0,0,.26-1.64,12.69,12.69,0,0,0-5.05-1l.89-1.58-5.87-1.78-2.21,3.92c-6.63,1.19-12.46,4.22-15.12,8.93a6.91,6.91,0,0,0-1,2.55A22.91,22.91,0,0,0,621.34,168.14Z" fill="#e0e0e0"/><path d="M621.34,168.14c4.38.51,6.39.76,5.29,2.67a3.94,3.94,0,0,1-.91,1c3,.4,4.19.84,3.28,2.45-.67,1.19-2.32,2.26-5.36,2.49s-4.4-.69-3.89-2.36L610,176.87v.26a5.79,5.79,0,0,0-1.44-.09l1.87,2.83a2.33,2.33,0,0,0,.17.26h0a5,5,0,0,0,2.4,1.62,13.7,13.7,0,0,0,4,.66h0l-4.55.36,2.37,3.5h0l3.08-.24,4.17-.32h0l2.23-3.93c6.53-1.14,11.87-4,14.5-8.7,1.19-2.1,1.27-3.58.66-4.62h0a1.51,1.51,0,0,0-.18-.26l-2-2.88a2.36,2.36,0,0,0-.53,1.34,19.5,19.5,0,0,0-3-.67c-4.08-.57-8.11-.4-6.69-2.9a4,4,0,0,1,.83-1c-2.52-.29-4.21-.73-3.22-2.49.89-1.55,2.89-2.38,5.28-2.57,3.79-.29,4.16,1.53,3.68,2.92h0l.42.62,2,2.88,10.27-2.52-2.37-3.5a6.1,6.1,0,0,0,.26-1.64,12.69,12.69,0,0,0-5.05-1l.89-1.58-5.87-1.78-2.21,3.92c-6.63,1.19-12.46,4.22-15.12,8.93a6.91,6.91,0,0,0-1,2.55A22.91,22.91,0,0,0,621.34,168.14Z" opacity="0.1" style="isolation:isolate"/><g opacity="0.2"><path d="M624.22,181.92a27.17,27.17,0,0,0,10.34-4.38,15.59,15.59,0,0,0,3.75-4,9.74,9.74,0,0,0,1.18-2.4,3.34,3.34,0,0,0-.11-2.54,3.29,3.29,0,0,1,.33,2.58,9.23,9.23,0,0,1-1.08,2.52,14.69,14.69,0,0,1-3.79,4.18,21.16,21.16,0,0,1-5.06,2.68A26.61,26.61,0,0,1,624.22,181.92Z"/></g><path d="M615.7,166.92a23.19,23.19,0,0,0,5.64,1.22c4.38.51,6.39.76,5.29,2.67a3.94,3.94,0,0,1-.91,1,8,8,0,0,1-4.43,1.44c-3.2.26-4.39-.69-3.89-2.36l-9.77,2.44a3.85,3.85,0,0,0,2.26,4.62,11.91,11.91,0,0,0,4.7,1l-2.22,3.92,4.55-.36,2.68-.2,2.21-3.93c6.55-1.13,11.89-4.08,14.52-8.7a8,8,0,0,0,1-2.68c.37-3-2.68-3.91-6.12-4.43-1.22-.18-2.44-.28-3.5-.42-2.51-.29-4.2-.73-3.21-2.49.88-1.55,2.89-2.38,5.28-2.57,3.79-.29,4.16,1.53,3.68,2.92l10.27-2.52a6.1,6.1,0,0,0,.26-1.64c0-2.07-1.34-3.27-3.41-3.9a16.05,16.05,0,0,0-4-.58l2.21-3.91-7.18.54L629.38,152c-6.63,1.19-12.46,4.21-15.12,8.93C612.36,164.28,613.51,166,615.7,166.92Z" fill="#e0e0e0"/><path d="M615.7,166.92a23.19,23.19,0,0,0,5.64,1.22c4.38.51,6.39.76,5.29,2.67a3.94,3.94,0,0,1-.91,1,8,8,0,0,1-4.43,1.44c-3.2.26-4.39-.69-3.89-2.36l-9.77,2.44a3.85,3.85,0,0,0,2.26,4.62,11.91,11.91,0,0,0,4.7,1l-2.22,3.92,4.55-.36,2.68-.2,2.21-3.93c6.55-1.13,11.89-4.08,14.52-8.7a8,8,0,0,0,1-2.68c.37-3-2.68-3.91-6.12-4.43-1.22-.18-2.44-.28-3.5-.42-2.51-.29-4.2-.73-3.21-2.49.88-1.55,2.89-2.38,5.28-2.57,3.79-.29,4.16,1.53,3.68,2.92l10.27-2.52a6.1,6.1,0,0,0,.26-1.64c0-2.07-1.34-3.27-3.41-3.9a16.05,16.05,0,0,0-4-.58l2.21-3.91-7.18.54L629.38,152c-6.63,1.19-12.46,4.21-15.12,8.93C612.36,164.28,613.51,166,615.7,166.92Z" fill="#f0f0f0"/><path d="M634.21,159.85l6.29-1.54-2.19-6.79c-.55-.07-1.13-.11-1.72-.14l1.07-1.88-.61-1.89-5.42.4-.8,1.34Z" fill="#fff" opacity="0.15" style="isolation:isolate"/><path d="M615.7,166.92a23.19,23.19,0,0,0,5.64,1.22l1.42.17-4-12.24a14.85,14.85,0,0,0-4.52,4.81,8.62,8.62,0,0,0-.75,1.67l1.3,3.91A6.19,6.19,0,0,0,615.7,166.92Z" fill="#fff" opacity="0.15" style="isolation:isolate"/><path d="M624.14,172.72a10.2,10.2,0,0,1-2.89.6c-3.2.25-4.4-.7-3.89-2.36l-1.07.27L619.76,182l2-3.6a28.85,28.85,0,0,0,3.88-.94Z" fill="#fff" opacity="0.15" style="isolation:isolate"/><path d="M612.41,178.76a15.94,15.94,0,0,0,2.18.22l-1.34,2.37.47,1.45,3.22-.26h.56L614,171.83l-3.57.89Z" fill="#fff" opacity="0.15" style="isolation:isolate"/><path d="M635.45,163.78l1.52,4.68a6.85,6.85,0,0,0,.39-1.41A3,3,0,0,0,635.45,163.78Z" fill="#fff" opacity="0.15" style="isolation:isolate"/><polygon points="621.84 178.42 624.22 181.92 622 185.84 619.63 182.34 621.84 178.42" fill="#e0e0e0"/><polygon points="621.84 178.42 624.22 181.92 622 185.84 619.63 182.34 621.84 178.42" opacity="0.13" style="isolation:isolate"/><path d="M629.4,152l-.76.16-.88.21-1.13.3c-.41.12-.86.24-1.34.4l-.71.24-.74.27-.74.3-.77.34c-.51.24-1,.47-1.51.75s-1,.58-1.46.86a21.14,21.14,0,0,0-2.49,1.92l-.5.49-.27.24-.21.24a7.56,7.56,0,0,0-.72.87,5.17,5.17,0,0,0-.52.71l-.41.63.38-.64a6.2,6.2,0,0,1,.49-.73,10.26,10.26,0,0,1,.71-.89l.28-.19.25-.23.48-.51c.37-.32.73-.68,1.16-1s.87-.65,1.34-1a15.51,15.51,0,0,1,1.48-.87c.5-.27,1-.51,1.52-.75l.78-.33.76-.3.74-.26.72-.23c.47-.16.93-.27,1.34-.38s.8-.2,1.14-.27l.88-.18Z" fill="#fff"/><polygon points="619.63 182.34 612.37 182.91 614.59 178.98 613.11 182.44 619.63 182.34" fill="#fafafa"/><polygon points="636.59 151.38 638.23 147.86 631.63 148.01 638.8 147.47 636.59 151.38" fill="#fafafa"/><path d="M209.37,106.62l-2.58,1.9,3.91,5.28h0a8.7,8.7,0,0,0,1.64,1.68,6.63,6.63,0,0,0,.69.49,11.92,11.92,0,0,0,3.93,1.55,14.36,14.36,0,0,0,1.6.24c.55,0,1.12.09,1.73.09a18.31,18.31,0,0,0,2.34-.09,24.79,24.79,0,0,0,2.57-.35c.66-.12,1.34-.27,2-.44,9.76-2.45,20.34-9.71,26.7-18.3.43-.59.85-1.18,1.24-1.77.56-.86,1.08-1.73,1.55-2.6a19.12,19.12,0,0,0,1-2.1c.31-.77.5-1.18.7-1.76s.37-1.14.52-1.7h0a14.57,14.57,0,0,0,.53-4.6v-.91a9.51,9.51,0,0,0-1.11-3.49,10.33,10.33,0,0,0-.6-.92h0l-3.7-5-2.37,1.75c-.34-.07-.69-.12-1-.16a19.39,19.39,0,0,0-4.44,0,25.07,25.07,0,0,0-2.85.41,32.52,32.52,0,0,0-3.74,1,52.08,52.08,0,0,0-23.28,16A37.64,37.64,0,0,0,213.84,96c-.61.92-1.19,1.88-1.71,2.83a27.23,27.23,0,0,0-1.86,4.25A19.35,19.35,0,0,0,209.37,106.62Z" fill="#e0e0e0"/><path d="M249.66,103.59l-7.92-10.71-3.63,3.31,7.94,10.71A45.23,45.23,0,0,0,249.66,103.59Z" fill="#fff" opacity="0.15" style="isolation:isolate"/><path d="M210.7,113.84h0a8.7,8.7,0,0,0,1.64,1.68,6.63,6.63,0,0,0,.69.49,11.92,11.92,0,0,0,3.93,1.55l.58.11-8.16-11h0l-2.58,1.9Z" opacity="0.05" style="isolation:isolate"/><path d="M220.14,99.21l-2.37,1,11.92,16.07c.79-.27,1.59-.56,2.39-.88Z" fill="#fff" opacity="0.15" style="isolation:isolate"/><path d="M238,112.52,227.73,98.58,224,101.79l9.6,13A48.19,48.19,0,0,0,238,112.52Z" fill="#fff" opacity="0.15" style="isolation:isolate"/><path d="M254,73.87l-2.37,1.74c-.35-.07-.7-.12-1.06-.16a19.3,19.3,0,0,0-4.43,0,25.25,25.25,0,0,0-2.86.41,31.84,31.84,0,0,0-3.73,1A38.19,38.19,0,0,0,236,78.15l16.55,22.36a19.26,19.26,0,0,0,1.34-1.74c.4-.59.85-1.18,1.23-1.77.57-.85,1.09-1.72,1.56-2.59a18.36,18.36,0,0,0,1-2.11c.31-.76.49-1.17.7-1.75s.37-1.14.52-1.7h0a14.63,14.63,0,0,0,.53-4.61v-.91a9.53,9.53,0,0,0-1.11-3.48,8.07,8.07,0,0,0-.6-.92h0Z" fill="#fff" opacity="0.15" style="isolation:isolate"/><path d="M259.45,84.18v-.91a9.51,9.51,0,0,0-1.11-3.49,10.33,10.33,0,0,0-.6-.92h0l-3.7-5-2.37,1.74h0l-.59.88,8.23,11.11A13.51,13.51,0,0,0,259.45,84.18Z" fill="#fff" opacity="0.15" style="isolation:isolate"/><path d="M206,97.46a16.92,16.92,0,0,0-.92,4.62,10.27,10.27,0,0,0,1.12,5.58,8.78,8.78,0,0,0,2.28,2.68,6.67,6.67,0,0,0,.7.48,11.16,11.16,0,0,0,3.92,1.54c.51.11,1,.19,1.58.26a13.91,13.91,0,0,0,1.73.09,22.33,22.33,0,0,0,2.34-.09c.82-.1,1.7-.2,2.57-.36.66-.12,1.34-.27,2-.43,9.77-2.45,20.35-9.71,26.71-18.31.43-.59.84-1.18,1.23-1.78.56-.84,1.08-1.71,1.55-2.58a23.26,23.26,0,0,0,1-2.1c.3-.69.5-1.2.71-1.77a13.41,13.41,0,0,0,.51-1.69h0A15.63,15.63,0,0,0,255.6,79a3.39,3.39,0,0,0-.08-.9,9.53,9.53,0,0,0-1.11-3.48A8.86,8.86,0,0,0,250.46,71a12.88,12.88,0,0,0-4.12-1.17,20.59,20.59,0,0,0-4.44,0,27.39,27.39,0,0,0-2.84.42,32.16,32.16,0,0,0-3.75,1,52.38,52.38,0,0,0-23.26,15.92c-.87,1.06-1.69,2.16-2.45,3.3a31.6,31.6,0,0,0-1.71,2.85A26.16,26.16,0,0,0,206,97.46Z" fill="#f0f0f0"/><path d="M248.66,95.28c.48-.58.94-1.17,1.34-1.76s.84-1.18,1.23-1.78c.56-.84,1.09-1.71,1.56-2.58s.73-1.42,1-2.1.49-1.2.71-1.77a15.19,15.19,0,0,0,.5-1.69h0a15.63,15.63,0,0,0,.54-4.62,3.39,3.39,0,0,0-.08-.9,9.53,9.53,0,0,0-1.11-3.48A8.86,8.86,0,0,0,250.43,71a12.9,12.9,0,0,0-4.11-1.17,20.69,20.69,0,0,0-4.45,0c-.83.08-1.67.21-2.52.37Z" fill="#fff" opacity="0.15" style="isolation:isolate"/><path d="M255.37,82.36a14.77,14.77,0,0,0,.25-3.38,3.39,3.39,0,0,0-.08-.9,9.53,9.53,0,0,0-1.11-3.48,8.56,8.56,0,0,0-3.08-3.16Z" fill="#fff" opacity="0.15" style="isolation:isolate"/><path d="M242.23,101.73c1.26-1.06,2.47-2.17,3.61-3.32L235.75,71l-.41.12a35.67,35.67,0,0,0-3.85,1.44Z" fill="#fff" opacity="0.15" style="isolation:isolate"/><path d="M229.79,109.58c1.48-.67,3-1.42,4.42-2.25l-11.1-30.17A51,51,0,0,0,219,80.23Z" fill="#fff" opacity="0.15" style="isolation:isolate"/><path d="M225.83,111.11c.82-.27,1.62-.57,2.42-.89l-10.6-28.87c-.72.62-1.4,1.25-2.05,1.89Z" fill="#fff" opacity="0.15" style="isolation:isolate"/><path d="M207.16,94.66h0c-.19.39-.36.78-.52,1.17l-.16.37c0,.14-.11.27-.15.4s-.21.58-.31.86a16.92,16.92,0,0,0-.92,4.62,10.27,10.27,0,0,0,1.12,5.58,8.78,8.78,0,0,0,2.28,2.68,6.67,6.67,0,0,0,.7.48,11.16,11.16,0,0,0,3.92,1.54l.58.11Z" fill="#e0e0e0" opacity="0.3" style="isolation:isolate"/><path d="M213.66,92.61c4.6-8.46,15.25-16,24.25-17.27a10.94,10.94,0,0,1,1.15-.14c9.23-.8,12.8,5.71,8,14.53s-16.17,16.64-25.44,17.41h-1.1C212.16,107.42,209.1,101.09,213.66,92.61Z" fill="#e0e0e0"/><path d="M214.46,92.56c.15-.28.31-.55.47-.82C219.55,84,229.32,77.24,237.69,76h.23l.87-.09a12.67,12.67,0,0,1,4.59.34,6.44,6.44,0,0,1,5.08,6.1,12.85,12.85,0,0,1-1.34,6.15c-.19.43-.41.86-.66,1.34a13.15,13.15,0,0,1-.69,1.2,27,27,0,0,1-1.85,2.41,36.85,36.85,0,0,1-17.81,12.2,23.9,23.9,0,0,1-2.76.62c-.43,0-.86.12-1.34.15s-.71,0-1.06,0h-.28a9.79,9.79,0,0,1-5.53-1.42c-2.34-1.57-3.3-4.34-2.59-7.81A16.77,16.77,0,0,1,214.46,92.56Z" fill="#e0e0e0"/><path d="M214.46,92.56c.15-.28.31-.55.47-.82C219.55,84,229.32,77.24,237.69,76h.23l.87-.09a12.67,12.67,0,0,1,4.59.34,6.44,6.44,0,0,1,5.08,6.1,12.85,12.85,0,0,1-1.34,6.15c-.19.43-.41.86-.66,1.34a13.15,13.15,0,0,1-.69,1.2,27,27,0,0,1-1.85,2.41,36.85,36.85,0,0,1-17.81,12.2,23.9,23.9,0,0,1-2.76.62c-.43,0-.86.12-1.34.15s-.71,0-1.06,0h-.28a9.79,9.79,0,0,1-5.53-1.42c-2.34-1.57-3.3-4.34-2.59-7.81A16.77,16.77,0,0,1,214.46,92.56Z" opacity="0.13" style="isolation:isolate"/><path d="M216.31,93.71l-.51.86A17.46,17.46,0,0,0,214,99.29a8.43,8.43,0,0,0,.42,5.27,5.73,5.73,0,0,0,.73.57,9.71,9.71,0,0,0,5.53,1.42H222a13,13,0,0,0,1.34-.14,23.9,23.9,0,0,0,2.76-.62,36.92,36.92,0,0,0,17.81-12.31A28.05,28.05,0,0,0,245.65,91c.25-.41.48-.81.69-1.21a16.1,16.1,0,0,0,2-7.49,7.23,7.23,0,0,0-.62-2.54,7.29,7.29,0,0,0-3-1.59,13.14,13.14,0,0,0-4.59-.34l-.87.1H239C230.7,79.21,220.93,86,216.31,93.71Z" fill="#e0e0e0"/><path d="M209.2,110.82c7,4,16.24.79,23.11-2.67C242.58,102.6,251.74,94.1,255,83.56h0a12.12,12.12,0,0,0-.55-9,12.12,12.12,0,0,1,.75,9h0c-2.44,8.71-9.37,16.07-17.1,21.42C230.07,110.36,218.32,115.86,209.2,110.82Z" fill="#f5f5f5"/><polygon points="224.37 94.59 226.03 97.03 219.19 98.73 217.53 96.28 224.37 94.59" opacity="0.13" style="isolation:isolate"/><path d="M223.38,93c.76,1.4,3.27,1.75,5.35,2l1.34.17a2.63,2.63,0,0,0,.65-.72c.76-1.34-.65-1.53-3.7-1.89a23,23,0,0,1-3.07-.55c.33-.72.18-1.56-2.31-1.47Z" opacity="0.13" style="isolation:isolate"/><polygon points="239.31 78.18 240.97 80.61 239.42 83.36 237.77 80.91 239.31 78.18" opacity="0.2" style="isolation:isolate"/><path d="M229.34,86.71A4.47,4.47,0,0,1,233,84.9c2.68-.2,2.92,1.07,2.58,2l.29.43a4.9,4.9,0,0,0-1.21,0,5.23,5.23,0,0,0-3.09,1.09C229.83,88.23,228.65,87.87,229.34,86.71Z" opacity="0.13" style="isolation:isolate"/><path d="M242.11,84.1a1.77,1.77,0,0,0,.78.6.76.76,0,0,1-.12.49l1.65,2.44a2.91,2.91,0,0,0-.23-2.6h0l-1.61-2.43S241.64,83.28,242.11,84.1Z" opacity="0.13" style="isolation:isolate"/><path d="M227.11,92.61c3.06.36,4.46.54,3.7,1.89a2.76,2.76,0,0,1-.64.72c2.07.28,2.93.59,2.29,1.72-.46.83-1.62,1.58-3.73,1.74s-3.06-.48-2.67-1.65l-6.83,1.7v.19a3.42,3.42,0,0,0-1,0l1.34,2,.12.2h0a3.5,3.5,0,0,0,1.68,1.12,9.62,9.62,0,0,0,2.77.46h0l-3.18.24,1.54,2.46h0l2.16-.17,2.91-.23h0l1.55-2.68c4.57-.79,8.3-2.85,10.12-6.08.85-1.47.9-2.5.47-3.22h0l-.13-.19-1.34-2a1.67,1.67,0,0,0-.38.93,12.82,12.82,0,0,0-2.11-.46c-2.87-.42-5.68-.28-4.69-2a2.43,2.43,0,0,1,.59-.69c-1.75-.22-2.93-.52-2.25-1.74A4.48,4.48,0,0,1,233.07,85c2.68-.2,2.92,1.07,2.59,2h0l.28.43,1.34,2,7.16-1.76-1.67-2.52A4.46,4.46,0,0,0,243,84a9,9,0,0,0-3.54-.68l.63-1.11L236,81l-1.55,2.67c-4.63.83-8.7,3-10.57,6.24a5,5,0,0,0-.65,1.77A15.18,15.18,0,0,0,227.11,92.61Z" fill="#e0e0e0"/><path d="M227.11,92.61c3.06.36,4.46.54,3.7,1.89a2.76,2.76,0,0,1-.64.72c2.07.28,2.93.59,2.29,1.72-.46.83-1.62,1.58-3.73,1.74s-3.06-.48-2.67-1.65l-6.83,1.7v.19a3.42,3.42,0,0,0-1,0l1.34,2,.12.2h0a3.5,3.5,0,0,0,1.68,1.12,9.62,9.62,0,0,0,2.77.46h0l-3.18.24,1.54,2.46h0l2.16-.17,2.91-.23h0l1.55-2.68c4.57-.79,8.3-2.85,10.12-6.08.85-1.47.9-2.5.47-3.22h0l-.13-.19-1.34-2a1.67,1.67,0,0,0-.38.93,12.82,12.82,0,0,0-2.11-.46c-2.87-.42-5.68-.28-4.69-2a2.43,2.43,0,0,1,.59-.69c-1.75-.22-2.93-.52-2.25-1.74A4.48,4.48,0,0,1,233.07,85c2.68-.2,2.92,1.07,2.59,2h0l.28.43,1.34,2,7.16-1.76-1.67-2.52A4.46,4.46,0,0,0,243,84a9,9,0,0,0-3.54-.68l.63-1.11L236,81l-1.55,2.67c-4.63.83-8.7,3-10.57,6.24a5,5,0,0,0-.65,1.77A15.18,15.18,0,0,0,227.11,92.61Z" opacity="0.1" style="isolation:isolate"/><g opacity="0.2"><path d="M229.19,102.24a18.68,18.68,0,0,0,7.22-3.07,10.9,10.9,0,0,0,2.68-2.78,6.27,6.27,0,0,0,.81-1.69,2.27,2.27,0,0,0,0-1.77,2.26,2.26,0,0,1,.23,1.81,6.38,6.38,0,0,1-.76,1.76,10.09,10.09,0,0,1-2.68,2.92,15.09,15.09,0,0,1-3.68,1.84A18.81,18.81,0,0,1,229.19,102.24Z"/></g><path d="M223.18,91.76a15.59,15.59,0,0,0,3.93.85c3.06.36,4.46.54,3.7,1.89a2.76,2.76,0,0,1-.64.72,5.57,5.57,0,0,1-3.1,1c-2.23.18-3.06-.49-2.67-1.65l-6.85,1.69a2.68,2.68,0,0,0,1.6,3.24,8.19,8.19,0,0,0,3.28.67l-1.56,2.68,3.18-.24,1.89-.15,1.55-2.68c4.57-.8,8.3-2.85,10.14-6.08a5.37,5.37,0,0,0,.67-1.83c.26-2.06-1.85-2.68-4.28-3.09-.84-.12-1.7-.19-2.43-.29-1.76-.21-2.94-.52-2.25-1.74A4.46,4.46,0,0,1,233,85c2.68-.2,2.92,1.07,2.58,2l7.17-1.83A4.46,4.46,0,0,0,243,84c0-1.44-1-2.29-2.39-2.68a11.56,11.56,0,0,0-2.81-.41l1.55-2.68-5,.38-1.57,2.75c-4.62.83-8.69,2.94-10.55,6.24C220.83,89.92,221.64,91.1,223.18,91.76Z" fill="#e0e0e0"/><path d="M223.18,91.76a15.59,15.59,0,0,0,3.93.85c3.06.36,4.46.54,3.7,1.89a2.76,2.76,0,0,1-.64.72,5.57,5.57,0,0,1-3.1,1c-2.23.18-3.06-.49-2.67-1.65l-6.85,1.69a2.68,2.68,0,0,0,1.6,3.24,8.19,8.19,0,0,0,3.28.67l-1.56,2.68,3.18-.24,1.89-.15,1.55-2.68c4.57-.8,8.3-2.85,10.14-6.08a5.37,5.37,0,0,0,.67-1.83c.26-2.06-1.85-2.68-4.28-3.09-.84-.12-1.7-.19-2.43-.29-1.76-.21-2.94-.52-2.25-1.74A4.46,4.46,0,0,1,233,85c2.68-.2,2.92,1.07,2.58,2l7.17-1.83A4.46,4.46,0,0,0,243,84c0-1.44-1-2.29-2.39-2.68a11.56,11.56,0,0,0-2.81-.41l1.55-2.68-5,.38-1.57,2.75c-4.62.83-8.69,2.94-10.55,6.24C220.83,89.92,221.64,91.1,223.18,91.76Z" fill="#f0f0f0"/><path d="M236.1,86.83l4.39-1.09L239,81c-.39,0-.79-.08-1.21-.09l.75-1.34-.43-1.34-3.77.28-.57,1Z" fill="#fff" opacity="0.15" style="isolation:isolate"/><path d="M223.18,91.76a15.59,15.59,0,0,0,3.93.85l1,.12-2.76-8.54a10.25,10.25,0,0,0-3.16,3.36,5.6,5.6,0,0,0-.53,1.17l.87,2.67A3.51,3.51,0,0,0,223.18,91.76Z" fill="#fff" opacity="0.15" style="isolation:isolate"/><path d="M229.1,95.81a7,7,0,0,1-2,.43c-2.23.18-3.06-.49-2.67-1.65l-.75.19,2.42,7.53,1.42-2.51a22.73,22.73,0,0,0,2.68-.65Z" fill="#fff" opacity="0.15" style="isolation:isolate"/><path d="M220.87,100a11.34,11.34,0,0,0,1.53.16l-.94,1.66.32,1,2.24-.18h.39L222,95.2l-2.5.63Z" fill="#fff" opacity="0.15" style="isolation:isolate"/><path d="M237,89.55,238,92.81a3.72,3.72,0,0,0,.27-1A2.09,2.09,0,0,0,237,89.55Z" fill="#fff" opacity="0.15" style="isolation:isolate"/><polygon points="227.46 99.8 229.12 102.24 227.57 104.97 225.92 102.53 227.46 99.8" fill="#e0e0e0"/><polygon points="227.46 99.8 229.12 102.24 227.57 104.97 225.92 102.53 227.46 99.8" opacity="0.13" style="isolation:isolate"/><path d="M232.74,81.31l-.54.11-.6.14c-.24.07-.51.13-.79.22s-.6.16-.92.27l-.5.17-.52.19-.52.21-.54.23c-.35.17-.71.34-1.06.54a9.26,9.26,0,0,0-1,.6c-.33.21-.65.43-.93.65l-.82.69-.34.33-.16.18-.15.16a7.85,7.85,0,0,0-.51.61,5.6,5.6,0,0,0-.36.49l-.28.45.26-.45c.11-.18.22-.35.34-.51a7.8,7.8,0,0,1,.49-.63l.15-.16.16-.18.35-.35c.26-.24.52-.47.8-.69s.62-.46.94-.69a11.37,11.37,0,0,1,1-.6c.35-.19.71-.36,1.07-.53l.54-.23.53-.2.52-.19.5-.16.94-.27c.28-.08.55-.13.79-.19l.61-.12Z" fill="#fff"/><polygon points="225.92 102.53 220.85 102.92 222.4 100.19 221.36 102.6 225.92 102.53" fill="#fafafa"/><polygon points="237.77 80.91 238.91 78.44 234.31 78.55 239.31 78.18 237.77 80.91" fill="#fafafa"/><path d="M111.65,538.48l-4.6,1.87,3.88,9.38h0a13.48,13.48,0,0,0,1.83,3.16c.27.33.55.67.85,1a18.18,18.18,0,0,0,5.35,3.8,19.39,19.39,0,0,0,2.31,1,22.39,22.39,0,0,0,2.56.81,35.33,35.33,0,0,0,3.54.75c1.34.2,2.68.35,4,.43,1,.06,2.08.1,3.13.1,15.61,0,34.25-6.89,47.06-17.41.87-.72,1.71-1.44,2.52-2.19,1.18-1.07,2.27-2.17,3.32-3.31.84-.92,1.63-1.85,2.34-2.77s1.19-1.58,1.72-2.37,1-1.57,1.42-2.34h0a24.09,24.09,0,0,0,2.55-6.7c.1-.47.16-.92.23-1.34a14.54,14.54,0,0,0-.36-5.65,13.43,13.43,0,0,0-.55-1.62h0l-3.67-8.92-4.22,1.73c-.48-.23-1-.44-1.51-.66a32.29,32.29,0,0,0-6.69-1.74,44,44,0,0,0-4.44-.47,54.22,54.22,0,0,0-6,0,80.71,80.71,0,0,0-41,15.19,57.76,57.76,0,0,0-4.94,4,46.07,46.07,0,0,0-3.65,3.6,42.06,42.06,0,0,0-4.42,5.69A30,30,0,0,0,111.65,538.48Z" fill="#e0e0e0"/><path d="M173.36,549.12,165.48,530l-6.69,3.62,7.86,19.15A71.33,71.33,0,0,0,173.36,549.12Z" fill="#fff" opacity="0.15" style="isolation:isolate"/><path d="M110.93,549.77h0a13.48,13.48,0,0,0,1.83,3.16c.27.33.55.67.85,1a18.18,18.18,0,0,0,5.35,3.8l.83.38-8-19.68h0l-4.61,1.88Z" opacity="0.05" style="isolation:isolate"/><path d="M130.64,531.37l-4,.63,11.84,28.63c1.34-.1,2.68-.23,3.94-.42Z" fill="#fff" opacity="0.15" style="isolation:isolate"/><path d="M152.51,558.14l-10.22-24.85-6.77,3.41,9.5,23.12C147.5,559.39,150,558.82,152.51,558.14Z" fill="#fff" opacity="0.15" style="isolation:isolate"/><path d="M191.08,506.07l-4.22,1.73c-.49-.23-1-.44-1.52-.66a32.12,32.12,0,0,0-6.69-1.74,44.07,44.07,0,0,0-4.43-.47,54.4,54.4,0,0,0-6,0c-1.91.11-3.88.34-5.87.63l16.46,39.87a32.74,32.74,0,0,0,2.68-2.11c.84-.76,1.71-1.44,2.52-2.19,1.18-1.07,2.27-2.17,3.32-3.31.84-.92,1.63-1.85,2.34-2.77s1.19-1.58,1.72-2.37,1-1.57,1.42-2.34h0a24.09,24.09,0,0,0,2.55-6.7c.1-.47.16-.92.23-1.34a14.54,14.54,0,0,0-.36-5.65,13.43,13.43,0,0,0-.55-1.62h0Z" fill="#fff" opacity="0.15" style="isolation:isolate"/><path d="M195.43,523.64c.09-.47.16-.92.22-1.34a14.54,14.54,0,0,0-.36-5.65,11.89,11.89,0,0,0-.55-1.62h0l-3.66-8.92-4.22,1.73h-.08L185.57,509l8.16,19.81A23.68,23.68,0,0,0,195.43,523.64Z" fill="#fff" opacity="0.15" style="isolation:isolate"/><path d="M110.09,523.39A27.25,27.25,0,0,0,107,530a16.13,16.13,0,0,0-.41,8.82,13.15,13.15,0,0,0,2.42,4.88,10.07,10.07,0,0,0,.85,1,17.76,17.76,0,0,0,5.35,3.82,24.27,24.27,0,0,0,2.3,1c.81.3,1.67.57,2.56.81a33.18,33.18,0,0,0,3.54.73c1.34.22,2.68.35,4,.45,1,0,2.07.09,3.13.09,15.6,0,34.24-6.9,47-17.41.88-.71,1.73-1.44,2.53-2.19,1.18-1.06,2.28-2.17,3.32-3.3.85-.92,1.62-1.85,2.35-2.77s1.19-1.59,1.71-2.38,1-1.57,1.42-2.35h0a24.37,24.37,0,0,0,2.56-6.69c.08-.46.16-.93.21-1.34a14.35,14.35,0,0,0-.35-5.65,13.69,13.69,0,0,0-4.56-7,20.25,20.25,0,0,0-5.73-3.31,32.4,32.4,0,0,0-6.7-1.75,43.55,43.55,0,0,0-4.42-.46,49.71,49.71,0,0,0-6,0,80.84,80.84,0,0,0-41.05,15.18q-2.61,1.92-4.94,4a44.45,44.45,0,0,0-3.64,3.62A42,42,0,0,0,110.09,523.39Z" fill="#f0f0f0"/><path d="M175,536.24c.94-.7,1.83-1.41,2.68-2.13s1.73-1.44,2.53-2.19c1.18-1.06,2.28-2.17,3.32-3.3.85-.92,1.62-1.85,2.35-2.77s1.19-1.59,1.71-2.38,1-1.57,1.42-2.35h0a24.37,24.37,0,0,0,2.56-6.69c.08-.46.16-.93.21-1.34a14.35,14.35,0,0,0-.35-5.65,13.69,13.69,0,0,0-4.56-7,20.39,20.39,0,0,0-5.73-3.31,32.4,32.4,0,0,0-6.7-1.75c-1.34-.2-2.58-.34-3.92-.42Z" fill="#fff" opacity="0.15" style="isolation:isolate"/><path d="M190,519.35a22.29,22.29,0,0,0,1.67-5c.08-.46.16-.93.22-1.34a14.35,14.35,0,0,0-.35-5.65,13.31,13.31,0,0,0-3.43-5.92Z" fill="#fff" opacity="0.15" style="isolation:isolate"/><path d="M162.87,543.51c2.31-1.11,4.54-2.33,6.7-3.64l-4.74-45h-.66c-2.07.13-4.19.37-6.33.71Z" fill="#fff" opacity="0.15" style="isolation:isolate"/><path d="M141.22,550.58a74.68,74.68,0,0,0,7.54-1.7l-5.25-49.54c-2.49.89-4.94,1.92-7.34,3.05Z" fill="#fff" opacity="0.15" style="isolation:isolate"/><path d="M134.71,551.37c1.34-.09,2.68-.22,4-.4l-5-47.39c-1.34.66-2.56,1.34-3.79,2.06Z" fill="#fff" opacity="0.15" style="isolation:isolate"/><path d="M112.86,519.6h0c-.42.52-.83,1-1.22,1.55l-.38.52-.38.54c-.27.39-.54.77-.79,1.18A27.25,27.25,0,0,0,107,530a16.13,16.13,0,0,0-.41,8.82,13.15,13.15,0,0,0,2.42,4.88,10.07,10.07,0,0,0,.85,1,17.76,17.76,0,0,0,5.35,3.82l.83.38Z" fill="#e0e0e0" opacity="0.3" style="isolation:isolate"/><path d="M123.4,519c10.12-11,29-18.24,43-16.79a11.65,11.65,0,0,1,1.75.23c14.17,2.3,17.1,13.39,6.53,24.88s-30.58,18.87-44.75,16.56c-.57-.09-1.14-.2-1.67-.32C115.55,540.67,113.26,530,123.4,519Z" fill="#e0e0e0"/><path d="M124.54,519.18c.32-.36.65-.71,1-1.06,9.88-9.89,27.13-16.32,40.08-15H166a10.23,10.23,0,0,1,1.34.17,20,20,0,0,1,6.77,2.25,10,10,0,0,1,5.36,11.12,20.11,20.11,0,0,1-4.38,8.7c-.46.56-.94,1.14-1.47,1.7s-1,1-1.52,1.55a40.94,40.94,0,0,1-3.53,3.06,57,57,0,0,1-31.36,11.61,35.55,35.55,0,0,1-4.38-.14,11.78,11.78,0,0,1-2-.25c-.65-.11-1.09-.19-1.6-.31l-.44-.11a15.19,15.19,0,0,1-7.77-4.2c-2.93-3.24-3.33-7.77-1-12.72A26.56,26.56,0,0,1,124.54,519.18Z" fill="#e0e0e0"/><path d="M124.54,519.18c.32-.36.65-.71,1-1.06,9.88-9.89,27.13-16.32,40.08-15H166a10.23,10.23,0,0,1,1.34.17,20,20,0,0,1,6.77,2.25,10,10,0,0,1,5.36,11.12,20.11,20.11,0,0,1-4.38,8.7c-.46.56-.94,1.14-1.47,1.7s-1,1-1.52,1.55a40.94,40.94,0,0,1-3.53,3.06,57,57,0,0,1-31.36,11.61,35.55,35.55,0,0,1-4.38-.14,11.78,11.78,0,0,1-2-.25c-.65-.11-1.09-.19-1.6-.31l-.44-.11a15.19,15.19,0,0,1-7.77-4.2c-2.93-3.24-3.33-7.77-1-12.72A26.56,26.56,0,0,1,124.54,519.18Z" opacity="0.13" style="isolation:isolate"/><path d="M127,521.64c-.35.35-.68.7-1,1.05a26.7,26.7,0,0,0-4.51,6.43,13.07,13.07,0,0,0-1.34,8,9,9,0,0,0,.88,1.15,15.17,15.17,0,0,0,7.77,4.21l.44.11q.76.18,1.59.3c.55.08,1.34.2,2,.26a37.7,37.7,0,0,0,4.38.13,57,57,0,0,0,31.36-11.61,41.2,41.2,0,0,0,3.54-3.05c.54-.51,1-1,1.51-1.56s1-1.13,1.48-1.7a20,20,0,0,0,4.37-8.7,10.87,10.87,0,0,0,0-4,11.41,11.41,0,0,0-3.92-3.55,20.07,20.07,0,0,0-6.77-2.23c-.45-.08-.89-.14-1.34-.19H167C154.12,505.25,136.85,511.75,127,521.64Z" fill="#e0e0e0"/><path d="M109.81,544.66c9.1,8.6,24.1,7.33,35.72,4.77,17.41-4.42,34.54-13.79,43.4-28.41h0c2.33-4.17,3.79-9,2.59-13.7,1.34,4.68,0,9.64-2.31,13.86h0c-7,12.17-20.08,20.58-33.84,25.81C141.35,551.85,121.62,555.7,109.81,544.66Z" fill="#f5f5f5"/><polygon points="138.76 526.01 140.31 530.31 129.4 530.27 127.84 525.98 138.76 526.01" opacity="0.13" style="isolation:isolate"/><path d="M137.86,523.29c.62,2.4,4.24,3.87,7.34,5.09l2,.78a3.87,3.87,0,0,0,1.23-.85c1.67-1.74-.38-2.53-4.83-4.23a32,32,0,0,1-4.39-2c.74-1,.84-2.3-3-3.09Z" opacity="0.13" style="isolation:isolate"/><polygon points="167.41 507.01 168.98 511.31 165.62 514.83 164.05 510.53 167.41 507.01" opacity="0.2" style="isolation:isolate"/><path d="M149.21,516.05c1.34-1.41,3.66-1.74,6.2-1.34,4,.69,4,2.68,3.11,4l.27.75A7.6,7.6,0,0,0,157,519a8.14,8.14,0,0,0-5.06.48C149.36,518.52,147.7,517.63,149.21,516.05Z" opacity="0.13" style="isolation:isolate"/><path d="M169.4,517a2.4,2.4,0,0,0,.92,1.19c-.11.23-.23.47-.36.7l1.56,4.29a4.51,4.51,0,0,0,.63-4h0l-1.56-4.29S169,515.57,169.4,517Z" opacity="0.13" style="isolation:isolate"/><path d="M143.63,524.08c4.45,1.7,6.5,2.49,4.83,4.23a3.87,3.87,0,0,1-1.23.85c3,1.2,4.18,2,2.8,3.44-1,1.07-3,1.75-6.27,1.2s-4.43-1.88-3.45-3.49H129.4l-.11.28a5.53,5.53,0,0,0-1.49-.48l1.22,3.45a1.93,1.93,0,0,0,.11.34h0a5.31,5.31,0,0,0,2.09,2.31,15.11,15.11,0,0,0,4,1.76h-.06l-4.86-.83,1.56,4.3h0l3.3.56,4.47.76h0l3.36-3.52c7.15.54,13.55-1.14,17.52-5.36,1.8-1.9,2.29-3.41,1.91-4.67h0a1.92,1.92,0,0,0-.11-.31L161,525.34a2.54,2.54,0,0,0-.92,1.26,20.38,20.38,0,0,0-3-1.5c-4.16-1.7-8.43-2.57-6.27-4.82a3.76,3.76,0,0,1,1.14-.83c-2.56-1-4.22-1.89-2.68-3.47s3.65-1.74,6.2-1.34c4,.7,4,2.68,3.11,4h0l.26.75,1.34,3.53,11.44.08-1.57-4.29a6.76,6.76,0,0,0,.71-1.66,14.17,14.17,0,0,0-5-2.36l1.34-1.42-5.69-3.42L158,513.4c-7.27-.51-14.2,1.13-18.24,5.35a7.76,7.76,0,0,0-1.71,2.57A23.78,23.78,0,0,0,143.63,524.08Z" fill="#e0e0e0"/><path d="M143.63,524.08c4.45,1.7,6.5,2.49,4.83,4.23a3.87,3.87,0,0,1-1.23.85c3,1.2,4.18,2,2.8,3.44-1,1.07-3,1.75-6.27,1.2s-4.43-1.88-3.45-3.49H129.4l-.11.28a5.53,5.53,0,0,0-1.49-.48l1.22,3.45a1.93,1.93,0,0,0,.11.34h0a5.31,5.31,0,0,0,2.09,2.31,15.11,15.11,0,0,0,4,1.76h-.06l-4.86-.83,1.56,4.3h0l3.3.56,4.47.76h0l3.36-3.52c7.15.54,13.55-1.14,17.52-5.36,1.8-1.9,2.29-3.41,1.91-4.67h0a1.92,1.92,0,0,0-.11-.31L161,525.34a2.54,2.54,0,0,0-.92,1.26,20.38,20.38,0,0,0-3-1.5c-4.16-1.7-8.43-2.57-6.27-4.82a3.76,3.76,0,0,1,1.14-.83c-2.56-1-4.22-1.89-2.68-3.47s3.65-1.74,6.2-1.34c4,.7,4,2.68,3.11,4h0l.26.75,1.34,3.53,11.44.08-1.57-4.29a6.76,6.76,0,0,0,.71-1.66,14.17,14.17,0,0,0-5-2.36l1.34-1.42-5.69-3.42L158,513.4c-7.27-.51-14.2,1.13-18.24,5.35a7.76,7.76,0,0,0-1.71,2.57A23.78,23.78,0,0,0,143.63,524.08Z" opacity="0.1" style="isolation:isolate"/><g opacity="0.2"><path d="M143,539.31a29.13,29.13,0,0,0,12.05-1.88,16.1,16.1,0,0,0,5-3.2,9.74,9.74,0,0,0,1.81-2.19,3.54,3.54,0,0,0,.56-2.68,3.52,3.52,0,0,1-.33,2.8,9.83,9.83,0,0,1-1.81,2.35,15.82,15.82,0,0,1-5.08,3.39,22,22,0,0,1-6,1.49A28.47,28.47,0,0,1,143,539.31Z"/></g><path d="M138.05,521.32a23.72,23.72,0,0,0,5.59,2.78c4.45,1.7,6.5,2.49,4.84,4.23a4.14,4.14,0,0,1-1.23.84,8.76,8.76,0,0,1-5,.36c-3.43-.59-4.42-1.9-3.44-3.51H127.86a4.18,4.18,0,0,0,1.15,5.47,13,13,0,0,0,4.67,2.25l-3.36,3.52,4.86.83,2.91.49,3.36-3.52c7.16.54,13.55-1.14,17.51-5.35a8.12,8.12,0,0,0,1.78-2.57c1.17-3-1.75-4.81-5.24-6.27-1.24-.5-2.48-.94-3.57-1.34-2.55-1-4.21-1.89-2.67-3.47s3.65-1.74,6.2-1.34c4,.7,4,2.68,3.1,4H170a6.76,6.76,0,0,0,.71-1.66c.56-2.16-.57-3.78-2.55-5a17.21,17.21,0,0,0-4-1.68l3.36-3.52-7.68-1.34-3.46,3.71c-7.28-.49-14.19,1.14-18.24,5.36C135.22,517.65,136,519.74,138.05,521.32Z" fill="#e0e0e0"/><path d="M138.05,521.32a23.72,23.72,0,0,0,5.59,2.78c4.45,1.7,6.5,2.49,4.84,4.23a4.14,4.14,0,0,1-1.23.84,8.76,8.76,0,0,1-5,.36c-3.43-.59-4.42-1.9-3.44-3.51H127.86a4.18,4.18,0,0,0,1.15,5.47,13,13,0,0,0,4.67,2.25l-3.36,3.52,4.86.83,2.91.49,3.36-3.52c7.16.54,13.55-1.14,17.51-5.35a8.12,8.12,0,0,0,1.78-2.57c1.17-3-1.75-4.81-5.24-6.27-1.24-.5-2.48-.94-3.57-1.34-2.55-1-4.21-1.89-2.67-3.47s3.65-1.74,6.2-1.34c4,.7,4,2.68,3.1,4H170a6.76,6.76,0,0,0,.71-1.66c.56-2.16-.57-3.78-2.55-5a17.21,17.21,0,0,0-4-1.68l3.36-3.52-7.68-1.34-3.46,3.71c-7.28-.49-14.19,1.14-18.24,5.36C135.22,517.65,136,519.74,138.05,521.32Z" fill="#f0f0f0"/><path d="M159.31,518.78h7l-.51-7.71a17.48,17.48,0,0,0-1.77-.59l1.62-1.69-.13-2.16-5.8-1-1.19,1.26Z" fill="#fff" opacity="0.15" style="isolation:isolate"/><path d="M138.05,521.32a23.72,23.72,0,0,0,5.59,2.78l1.44.54-.9-13.87a16,16,0,0,0-6.05,3.86,9.15,9.15,0,0,0-1.22,1.55l.28,4.41A6,6,0,0,0,138.05,521.32Z" fill="#fff" opacity="0.15" style="isolation:isolate"/><path d="M145.4,529.64a11.43,11.43,0,0,1-3.2-.12c-3.43-.59-4.42-1.9-3.44-3.51h-1.21l.79,12.24,3.09-3.24a34.59,34.59,0,0,0,4.32,0Z" fill="#fff" opacity="0.15" style="isolation:isolate"/><path d="M131.45,532.87a17.31,17.31,0,0,0,2.22.81l-2,2.15.11,1.63,3.43.58.6.1L135,526h-4Z" fill="#fff" opacity="0.15" style="isolation:isolate"/><path d="M159.61,523.2l.34,5.35a5.94,5.94,0,0,0,.78-1.33A3.3,3.3,0,0,0,159.61,523.2Z" fill="#fff" opacity="0.15" style="isolation:isolate"/><polygon points="141.44 535.01 143 539.31 139.64 542.83 138.07 538.53 141.44 535.01" fill="#e0e0e0"/><polygon points="141.44 535.01 143 539.31 139.64 542.83 138.07 538.53 141.44 535.01" opacity="0.13" style="isolation:isolate"/><path d="M156.37,509.27h-3.1a10.91,10.91,0,0,0-1.48.07l-.82.07-.84.09-.87.12a4,4,0,0,0-.89.15c-.6.12-1.2.22-1.79.39s-1.18.33-1.76.52a16,16,0,0,0-1.64.64c-.53.24-1,.48-1.48.71l-.65.39-.31.17-.28.2a12.37,12.37,0,0,0-1,.73,8.43,8.43,0,0,0-.72.6l-.6.56.57-.57a7,7,0,0,1,.71-.63,10.37,10.37,0,0,1,1-.77l.28-.2.31-.19.66-.4a14.38,14.38,0,0,1,1.47-.73,15.93,15.93,0,0,1,1.66-.66c.57-.19,1.16-.39,1.77-.54s1.2-.26,1.79-.38l.9-.14.87-.2.84-.08h4.57Z" fill="#fff"/><polygon points="138.07 538.53 130.31 537.21 133.67 533.68 131.2 536.91 138.07 538.53" fill="#fafafa"/><polygon points="164.05 510.53 166.7 507.26 159.74 505.68 167.41 507.01 164.05 510.53" fill="#fafafa"/></svg>